<svg xmlns="http://www.w3.org/2000/svg" version="1.1" xmlns:xlink="http://www.w3.org/1999/xlink" xmlns:svgjs="http://svgjs.dev/svgjs" width="100%" height="100%" viewBox="0 0 1000 600"><rect width="1000" height="600" x="0" y="0" fill="#262223"/><g><circle r="166.66666666666666" cx="398.35834757486975" cy="420.5805841499566" fill="#ddc6b6" transform="matrix(0.5395100679568426,0,0,0.5395100679568426,0,73.09254809332279)"/><path d="M306.92710523001 378.23563498393503L304.5861332327672 377.3762908330484Q310.779337630536 359.24116599364896 325.2696579678994 352.42567790041056Q339.7896108621898 345.580557250245 376.7117767933855 345.580557250245L376.7117767933855 345.580557250245Q384.3866090375105 345.580557250245 415.53042636791713 346.23247350264177L415.53042636791713 346.23247350264177Q438.14006730331226 346.8843897550385 455.4158479918253 356.04084984551963Q472.7212612372653 365.22694249292783 482.4111073524346 381.96933715675254Q492.1305860245311 398.71173182057726 492.1305860245311 420.9065169589927L492.1305860245311 420.9065169589927Q492.1305860245311 454.39130628664213 470.88404270778364 474.9859333509928Q449.6671319479633 495.5805604153436 415.53042636791713 495.5805604153436L415.53042636791713 495.5805604153436L343.197354908809 495.5805604153436L343.4047828072989 493.44701631659075L345.9828152599586 493.44701631659075Q351.3166755068408 493.44701631659075 355.13927535043973 489.92074204226304Q358.99150775096575 486.39446776793534 359.6434240033625 481.29766797647017L359.6434240033625 481.29766797647017L359.6434240033625 352.63310579890043Q332.9741227689514 353.2850220512971 321.8619139212802 360.9598542954221L321.8619139212802 360.9598542954221Q316.11319787741826 365.01951459443796 313.1203096277788 368.75321676725554Q310.12742137813933 372.48691894007305 306.92710523001 378.23563498393503L306.92710523001 378.23563498393503ZM415.53042636791713 352.63310579890043L373.51146064525625 352.63310579890043L373.51146064525625 489.17992811908493L415.53042636791713 489.17992811908493Q442.61458339930795 489.17992811908493 459.3866106200598 470.39288702728874Q476.1290052838845 451.6354784924196 476.1290052838845 420.9065169589927L476.1290052838845 420.9065169589927Q476.1290052838845 400.6378480208403 468.5430707105409 385.1696533048819Q460.98676869412446 369.70145858892346 447.2076297230121 361.16728219391194Q433.4581233088268 352.63310579890043 415.53042636791713 352.63310579890043L415.53042636791713 352.63310579890043Z " fill="#262223" transform="matrix(0.5395100679568426,0,0,0.5395100679568426,0,73.09254809332279)"/><path d="M650.618945319407 379.374910644735L648.3583576784443 378.5450746752677Q654.3388996652948 361.03267421616505 668.331651012519 354.45121652728653Q682.3530173931731 347.8411438049782 718.0073490468363 347.8411438049782L718.0073490468363 347.8411438049782Q725.4186427051822 347.8411438049782 755.4930428400137 348.4706745404361L755.4930428400137 348.4706745404361Q777.3263133470323 349.10020527589404 794.0088778366677 357.9422506057351Q810.720057359733 366.81291096900605 820.0771732913124 382.9804048569032Q829.4629042563217 399.1478987448003 829.4629042563217 420.58055878380014L829.4629042563217 420.58055878380014Q829.4629042563217 452.9155465595943 808.9459252870788 472.80299479337924Q788.4575613512659 492.6904430271642 755.4930428400137 492.6904430271642L755.4930428400137 492.6904430271642L685.6437462376124 492.6904430271642L685.8440514716217 490.63016062021086L688.3335593800235 490.63016062021086Q693.4842653974066 490.63016062021086 697.1756047098646 487.2249716420521Q700.8955590557524 483.8197826638932 701.5250897912103 478.89799691394927L701.5250897912103 478.89799691394927L701.5250897912103 354.6515217612959Q675.7715597042946 355.28105249675383 665.0409221680798 362.6923461550996L665.0409221680798 362.6923461550996Q659.489605682678 366.61260573499675 656.5994873062574 370.21809994716494Q653.7093689298368 373.82359415933314 650.618945319407 379.374910644735L650.618945319407 379.374910644735ZM755.4930428400137 354.6515217612959L714.9169254364066 354.6515217612959L714.9169254364066 486.5095958063044L755.4930428400137 486.5095958063044Q781.6471833949481 486.5095958063044 797.8432923162752 468.36766461174375Q814.0107862041723 450.254348450613 814.0107862041723 420.58055878380014L814.0107862041723 420.58055878380014Q814.0107862041723 401.0078759177442 806.6853376461162 386.07082846733306Q799.3885041214901 371.13378101692194 786.0825135765837 362.89265138910895Q772.805138065107 354.6515217612959 755.4930428400137 354.6515217612959L755.4930428400137 354.6515217612959ZM849.8654230918448 490.63016062021086L852.5266212008262 490.63016062021086Q857.8776324522187 490.63016062021086 861.7120469318261 486.82436117403336Q865.5178463780037 483.0185617278558 865.718151612013 477.6389354430334L865.718151612013 477.6389354430334L865.718151612013 363.2932618571276Q865.5178463780037 357.9422506057351 861.7120469318261 354.25091129327717Q857.8776324522187 350.53095694738937 852.5266212008262 350.53095694738937L852.5266212008262 350.53095694738937L849.8654230918448 350.53095694738937L849.8654230918448 348.4706745404361L894.9627157773773 348.4706745404361L894.9627157773773 350.53095694738937L892.301517668396 350.53095694738937Q886.9505064170036 350.53095694738937 883.116091937396 354.25091129327717Q879.3102924912185 357.9422506057351 879.1099872572092 363.2932618571276L879.1099872572092 363.2932618571276L879.1099872572092 477.6389354430334Q879.1099872572092 483.0185617278558 883.0302468371063 486.82436117403336Q886.9505064170036 490.63016062021086 892.301517668396 490.63016062021086L892.301517668396 490.63016062021086L894.9627157773773 490.63016062021086L894.9627157773773 492.6904430271642L849.8654230918448 492.6904430271642L849.8654230918448 490.63016062021086ZM919.6861046608165 484.24900816534176L919.6861046608165 484.24900816534176Q919.0851889587883 481.35888978892126 919.0851889587883 473.1177601611082Q919.0851889587883 464.87663053329516 922.1756125692182 455.6053597020055L922.1756125692182 455.6053597020055L924.0355897421621 455.6053597020055Q923.8066694747229 457.8659473429681 923.8066694747229 460.1265349839307L923.8066694747229 460.1265349839307Q923.8066694747229 472.7171496930895 931.4468834005079 481.04412442119224Q939.0584822928629 489.3997141827249 951.6204819685919 489.3997141827249L951.6204819685919 489.3997141827249Q964.6117071457693 489.3997141827249 972.9672969073019 481.55919502293057Q981.2942716354048 473.74729089656614 981.2942716354048 461.9006670565849Q981.2942716354048 450.05404321660365 973.2534472416011 442.61413452482805L973.2534472416011 442.61413452482805L933.7074710414705 405.958276701118Q922.5762230372369 395.6568646663517 922.5762230372369 381.03458258366953Q922.5762230372369 366.3836854675575 932.3625644702649 355.99642833250147Q942.1489059032929 345.5805561640156 958.8314703929283 345.5805561640156L958.8314703929283 345.5805561640156Q966.6719895527226 345.5805561640156 976.5727911194703 347.6408385709688L976.5727911194703 347.6408385709688L984.585000479844 347.6408385709688L984.585000479844 372.9937581898659L982.75363834033 372.9937581898659Q982.75363834033 363.2932618571276 976.0577205177319 357.54164013771646Q969.3618026951337 351.76140338487534 958.8314703929283 351.76140338487534Q948.3297531241526 351.76140338487534 941.2332248335358 358.7720865752024Q934.1080815094892 365.78276976552945 934.1080815094892 376.2844870343051Q934.1080815094892 386.78620430308075 942.3492111373023 394.4264182288657L942.3492111373023 394.4264182288657L982.9539435743393 431.91211202204306Q993.2553556091057 441.3836880873421 993.2553556091057 457.8659473429681Q993.2553556091057 474.3482065985942 982.75363834033 484.96438400108946Q972.2233060381245 495.5805614035847 954.7109055790218 495.5805614035847L954.7109055790218 495.5805614035847Q945.6685550151714 495.5805614035847 935.4529880806948 492.8049031608838Q925.2660361796482 490.0006298847529 919.6861046608165 484.24900816534176ZM1091.1187699393854 495.5805614035847Q1058.554861896152 495.3802561695753 1038.066497960339 474.7774321000428Q1017.5495189910961 454.17460803051017 1017.5495189910961 420.46609865008054Q1017.5495189910961 386.78620430308075 1038.066497960339 366.1833802335481Q1058.554861896152 345.5805561640156 1092.3492163768715 345.5805561640156L1092.3492163768715 345.5805561640156Q1119.962723636731 345.5805561640156 1141.1664634082917 359.60192254466966L1141.1664634082917 359.60192254466966L1145.2870282221984 388.64618147602465L1143.4556660826843 388.64618147602465Q1138.9058757673292 370.9334757829126 1125.113429654114 361.34743958389396Q1111.2923685074693 351.76140338487534 1092.3492163768715 351.76140338487534L1092.3492163768715 351.76140338487534Q1065.3652398524696 351.76140338487534 1049.1977459645727 370.504250281464Q1033.0016370432454 389.2757122114826 1033.0016370432454 420.1799483157814Q1033.0016370432454 451.0841844200803 1048.9688256971335 469.9128764169587Q1064.9360143510212 488.77018344726696 1091.1187699393854 489.3997141827249L1091.1187699393854 489.3997141827249Q1114.1824868838899 489.3997141827249 1129.6346049360395 476.837714506996L1129.6346049360395 476.837714506996Q1146.3171694256748 463.21695859436056 1149.8368185375534 432.541642757501L1149.8368185375534 432.541642757501L1151.467875443058 432.541642757501L1149.0069825680857 464.87663053329516Q1130.2641356714971 495.5805614035847 1091.1187699393854 495.5805614035847L1091.1187699393854 495.5805614035847ZM1192.072607880095 366.2978403672678Q1214.106183621123 345.5805561640156 1249.245444673048 345.5805561640156Q1284.3560906915432 345.5805561640156 1306.4182814660007 366.2978403672678Q1328.4518572070288 386.98650953709006 1328.4518572070288 420.58055878380014Q1328.4518572070288 454.17460803051017 1306.4182814660007 474.8632772003325Q1284.3560906915432 495.5805614035847 1249.245444673048 495.5805614035847Q1214.106183621123 495.5805614035847 1192.072607880095 474.8632772003325Q1170.0104171056373 454.17460803051017 1170.0104171056373 420.58055878380014Q1170.0104171056373 386.98650953709006 1192.072607880095 366.2978403672678ZM1203.2897009846183 470.427947018697Q1220.7162563434313 489.3997141827249 1249.1309845393284 489.3997141827249Q1277.5743277686552 489.3997141827249 1294.972268094038 470.427947018697Q1312.398823452851 451.484794888099 1312.398823452851 420.58055878380014Q1312.398823452851 389.67632267950125 1294.972268094038 370.7331705489033Q1277.5743277686552 351.76140338487534 1249.1309845393284 351.76140338487534Q1220.7162563434313 351.76140338487534 1203.2897009846183 370.7331705489033Q1185.8917606592354 389.67632267950125 1185.8917606592354 420.58055878380014Q1185.8917606592354 451.484794888099 1203.2897009846183 470.427947018697ZM1387.1699058051963 354.8518269953052L1387.1699058051963 354.8518269953052L1373.9783753940096 354.8518269953052L1373.9783753940096 477.6389354430334Q1373.9783753940096 483.0185617278558 1377.812789873617 486.82436117403336Q1381.6185893197949 490.63016062021086 1387.1699058051963 490.63016062021086L1387.1699058051963 490.63016062021086L1389.6594137135985 490.63016062021086L1389.8597189476077 492.6904430271642L1344.7338112286452 492.6904430271642L1344.7338112286452 490.63016062021086L1347.4236243710566 490.63016062021086Q1352.7746356224493 490.63016062021086 1356.5804350686267 486.91020627432306Q1360.386234514804 483.21886696186516 1360.5865397488137 477.86785571047267L1360.5865397488137 477.86785571047267L1360.5865397488137 363.5221821245669Q1360.386234514804 358.1425558397445 1356.5804350686267 354.33675639356693Q1352.7746356224493 350.53095694738937 1347.4236243710566 350.53095694738937L1347.4236243710566 350.53095694738937L1344.7338112286452 350.53095694738937L1344.7338112286452 348.4706745404361L1400.3614362163835 348.4706745404361Q1419.104283112972 348.4706745404361 1429.834920649187 358.886546708922Q1440.536943151972 369.273803843978 1440.536943151972 385.87052323332375Q1440.536943151972 402.4386275892395 1430.349991250925 414.51417169666Q1420.1344243164485 426.56110077065057 1405.5121422337666 426.56110077065057L1405.5121422337666 426.56110077065057Q1408.6025658441963 427.99185244214584 1412.8375907918225 432.226877389772Q1417.0440007060188 436.43328730396826 1420.3347295504582 440.98307761932335L1420.3347295504582 440.98307761932335Q1438.076050277 466.3073822047905 1443.4270615283922 472.2020790913512Q1448.778072779785 478.068160944482 1451.0386604207474 480.214288451725Q1453.2992480617104 482.38903099239786 1455.9890612041213 484.4493133993511Q1458.6788743465327 486.5095958063044 1461.340072455514 487.74004224379036L1461.340072455514 487.74004224379036Q1467.3206144423643 490.63016062021086 1474.1309923986819 490.63016062021086L1474.1309923986819 490.63016062021086L1474.1309923986819 492.6904430271642L1462.7994391604393 492.6904430271642Q1453.928778797168 492.6904430271642 1446.3171799048132 489.4855592830146Q1438.676965979028 486.309290572295 1434.8711665328506 482.90410159413614Q1431.0653670866727 479.4989126159773 1428.2897088439722 476.3226439052577Q1425.4854355678413 473.1177601611082 1412.9234358921121 454.97582896654757Q1400.3614362163835 436.8625128054168 1398.3011538094302 434.2871597967253Q1396.2408714024768 431.7118067880337 1393.9802837615143 429.22229887963186L1393.9802837615143 429.22229887963186Q1387.370211039206 422.2402307227347 1380.7887533503272 422.2402307227347L1380.7887533503272 422.2402307227347L1380.7887533503272 420.1799483157814Q1382.448425289262 420.3802535497908 1385.109623398243 420.3802535497908Q1387.7994365406544 420.3802535497908 1391.7196961205518 420.1799483157814L1391.7196961205518 420.1799483157814Q1417.244305940028 419.5504175803235 1423.8543786623363 398.7472882767816L1423.8543786623363 398.7472882767816Q1425.0848250998224 394.6267234628751 1425.0848250998224 391.0212292507069Q1425.0848250998224 387.4157350385387 1425.0848250998224 386.385593835062L1425.0848250998224 386.385593835062Q1424.684214631804 372.5645326884173 1417.873836675486 364.1230978265949Q1411.0634587191685 355.6816629647725 1399.5316002469162 355.05213222931457L1399.5316002469162 355.05213222931457Q1394.5811994635424 354.8518269953052 1387.1699058051963 354.8518269953052ZM1547.8719335475503 348.4706745404361Q1580.8364520588025 348.4706745404361 1601.3534310280456 368.35812277422104Q1621.8417949638583 388.2455710080059 1621.8417949638583 420.58055878380014Q1621.8417949638583 452.9155465595943 1601.3534310280456 472.80299479337924Q1580.8364520588025 492.6904430271642 1547.8719335475503 492.6904430271642L1547.8719335475503 492.6904430271642L1478.0226369451493 492.6904430271642L1478.0226369451493 490.63016062021086L1480.7124500875602 490.63016062021086Q1486.063461338953 490.63016062021086 1489.8692607851303 486.82436117403336Q1493.7036752647377 483.0185617278558 1493.9039804987474 477.6389354430334L1493.9039804987474 477.6389354430334L1493.9039804987474 362.263120653651Q1493.9039804987474 357.3413349037071 1489.8692607851303 353.93614592554826Q1485.8631561049438 350.53095694738937 1480.7124500875602 350.53095694738937L1480.7124500875602 350.53095694738937L1478.2515572125885 350.53095694738937L1478.0226369451493 348.4706745404361L1547.8719335475503 348.4706745404361ZM1547.8719335475503 354.6515217612959L1507.2958161439437 354.6515217612959L1507.2958161439437 486.5095958063044L1547.8719335475503 486.5095958063044Q1565.184028772644 486.5095958063044 1578.4614042841204 478.26846617849134Q1591.7673948290271 470.02733655067834 1599.064228353653 455.09028910026717Q1606.389676911709 440.15324164985606 1606.389676911709 420.58055878380014L1606.389676911709 420.58055878380014Q1606.389676911709 390.9067691169872 1590.2221830238118 372.7934529558565Q1574.054689135915 354.6515217612959 1547.8719335475503 354.6515217612959L1547.8719335475503 354.6515217612959Z " fill="#ddc6b6" transform="matrix(0.5395100679568426,0,0,0.5395100679568426,0,73.09254809332279)"/></g></svg>