<svg xmlns="http://www.w3.org/2000/svg" version="1.1" xmlns:xlink="http://www.w3.org/1999/xlink" xmlns:svgjs="http://svgjs.dev/svgjs" width="100%" height="100%" viewBox="0 0 1000 600"><rect width="1000" height="600" x="0" y="0" fill="#262223"/><g><circle r="166.66666666666666" cx="408.05195109049475" cy="430.2741244539644" fill="#ddc6b6" transform="matrix(0.5178443601992102,0,0,0.5178443601992101,0,77.18495932320295)"/><path d="M460.17475691790725 449.71316789522194L460.17475691790725 446.57970565906413Q460.17475691790725 442.4017560108538 457.36044361320995 439.47138854926175Q454.517116769289 436.5410210876697 450.3391671210786 436.33792631310394L450.3391671210786 436.33792631310394L383.49197274971226 436.33792631310394L383.49197274971226 490.01297387691807Q383.49197274971226 495.4675192509705 387.4668276233569 499.32631996772034Q391.4416824970015 503.18512068447023 396.86721433183027 503.18512068447023L396.86721433183027 503.18512068447023L399.5944870188565 503.18512068447023L399.5944870188565 505.27409550857544L353.84013566310796 505.27409550857544L353.84013566310796 503.18512068447023L356.5674083501342 503.18512068447023Q361.99294018496295 503.18512068447023 365.85174090171284 499.32631996772034Q369.71054161846274 495.4675192509705 369.9136363930285 490.01297387691807L369.9136363930285 490.01297387691807L369.9136363930285 373.030383727027Q369.9136363930285 368.04005498055346 365.85174090171284 364.58744381293513Q361.78984541039716 361.1348326453168 356.5674083501342 361.1348326453168L356.5674083501342 361.1348326453168L354.04323043767374 361.1348326453168L353.84013566310796 359.04585782121165L415.0587034250797 359.04585782121165Q424.02388704519785 359.04585782121165 430.92910938043445 357.5951808600275Q437.80531817644743 356.1154903596196 439.89429300055264 355.2740977221328L439.89429300055264 355.2740977221328L439.89429300055264 378.891118650211L437.80531817644743 378.891118650211L437.80531817644743 375.75765641405326Q437.80531817644743 371.57970676584284 434.9039642540791 368.56229868657977Q431.97359679248706 365.515877068093 427.5925523697109 365.515877068093L427.5925523697109 365.515877068093L383.49197274971226 365.515877068093L383.49197274971226 430.0710018407883L450.1360723465128 430.0710018407883Q454.3140219947232 429.8679070662226 457.2443894563152 426.93753960463056Q460.17475691790725 424.00717214303853 460.17475691790725 419.6261277202624L460.17475691790725 419.6261277202624L460.17475691790725 416.69576025867036L462.26373174201245 416.69576025867036L462.26373174201245 449.71316789522194L460.17475691790725 449.71316789522194Z " fill="#262223" transform="matrix(0.5178443601992102,0,0,0.5178443601992101,0,77.18495932320295)"/><path d="M742.4571729583444 355.2740976797179L742.4571729583444 361.22173580237444L742.4571729583444 378.4385829995381L740.4082258538886 378.4385829995381L740.4082258538886 375.3651623428543Q740.4082258538886 371.26726813394265 737.5624659865888 368.3076778719509Q734.688248520616 365.3196300112861 730.3911511209933 365.3196300112861L730.3911511209933 365.3196300112861L687.1356011380368 365.3196300112861L687.1356011380368 428.637787058706L721.768498723075 428.637787058706Q725.8663929319868 428.4385838679951 728.7406103979595 425.5643664020223Q731.6148278639322 422.6901489360495 731.6148278639322 418.59225472713786L731.6148278639322 418.59225472713786L731.6148278639322 415.5188340704541L733.6637749683881 415.5188340704541L733.6637749683881 447.90358136032546L731.6148278639322 447.90358136032546L731.6148278639322 444.83016070364175Q731.6148278639322 440.7322664947301 728.8544407926514 437.8580490287573Q726.0655961226977 434.98383156278453 721.9677019137861 434.78462837207354L721.9677019137861 434.78462837207354L687.1356011380368 434.78462837207354L687.1356011380368 487.43118591711936Q687.1356011380368 492.7812144676429 691.0342921562375 496.56607509115156Q694.9329831744382 500.3509357146603 700.2545541262888 500.3509357146603L700.2545541262888 500.3509357146603L702.9295684015506 500.3509357146603L702.9295684015506 502.3998828191161L658.0519352942332 502.3998828191161L658.0519352942332 500.3509357146603L660.7269495694949 500.3509357146603Q666.0485205213455 500.3509357146603 669.8333811448542 496.56607509115156Q673.618241768363 492.7812144676429 673.8174449590739 487.43118591711936L673.8174449590739 487.43118591711936L673.8174449590739 372.69014806759253Q673.8174449590739 367.7954410958369 669.8333811448542 364.4089868537502Q665.8493173306346 361.02253261166345 660.7269495694949 361.02253261166345L660.7269495694949 361.02253261166345L658.2511384849441 361.02253261166345L658.0519352942332 358.97358550720764L718.0974684942584 358.97358550720764Q724.4435129983368 358.97358550720764 731.9278614493352 357.74990876426875Q739.3837523016606 356.52623202132986 742.4571729583444 355.2740976797179L742.4571729583444 355.2740976797179ZM888.7576877362256 500.3509357146603L888.7576877362256 500.3509357146603L890.4082284592595 500.3509357146603L890.4082284592595 502.3998828191161L844.3069186090032 502.3998828191161L844.3069186090032 500.3509357146603L846.1566625227481 500.3509357146603Q850.4537599223708 500.3509357146603 852.5880798228455 497.5905486433795Q854.7508573219933 494.83016157209875 854.7508573219933 492.3543504875479Q854.7508573219933 489.9069970016701 853.9255869604765 487.43118591711936L853.9255869604765 487.43118591711936L840.8066339722245 452.5990851413701L785.4850621519168 452.5990851413701L771.7684995915321 487.6588467065033Q770.943229230015 490.1062001923811 770.943229230015 492.46818088223995Q770.943229230015 494.83016157209875 773.1060067291629 497.5905486433795Q775.2403266296377 500.3509357146603 779.5658816279334 500.3509357146603L779.5658816279334 500.3509357146603L781.3871679430052 500.3509357146603L781.3871679430052 502.3998828191161L740.2090226631775 502.3998828191161L740.2090226631775 500.3509357146603L742.0587665769225 500.3509357146603Q747.181134338062 500.3509357146603 752.1042989084906 497.07831186726554Q757.0274634789192 493.8056880198708 760.100884135603 487.43118591711936L760.100884135603 487.43118591711936L806.4013971765703 377.2149062565992Q813.9711184235877 360.6241262302415 813.9711184235877 356.09936804123487L813.9711184235877 356.09936804123487L815.8208623373325 356.09936804123487L870.7440277762181 487.43118591711936Q873.5897876435179 493.8056880198708 878.5129522139465 497.07831186726554Q883.436116784375 500.3509357146603 888.7576877362256 500.3509357146603ZM813.7719152328766 380.6867332947049L787.9608732364677 446.4522438280026L838.3592804863466 446.4522438280026L813.7719152328766 380.6867332947049ZM966.4184745148365 505.2741002850889Q934.033727224965 505.0748970943779 913.6580865750987 484.58542604981955Q893.2824459252323 464.0959550052612 893.2824459252323 430.57290376846987Q893.2824459252323 397.07831013035155 913.6580865750987 376.5888390857932Q934.033727224965 356.09936804123487 967.6421512577753 356.09936804123487L967.6421512577753 356.09936804123487Q995.1037339772181 356.09936804123487 1016.2192721925825 370.04359139100376L1016.2192721925825 370.04359139100376L1020.3171664014941 398.9280540440964L1018.4674224877492 398.9280540440964Q1013.9426642987426 381.3128004655108 1000.2261017383577 371.77950491005663Q986.5095391779728 362.24620935460234 967.6421512577753 362.24620935460234L967.6421512577753 362.24620935460234Q940.8066357091385 362.24620935460234 924.7280924588948 380.88593648541587Q908.649549208651 399.55412121490235 908.649549208651 430.2883277817399Q908.649549208651 461.02253434857744 924.5288892681838 479.74763427540995Q940.4082293277165 498.5011918009154 966.4184745148365 499.1272589717214L966.4184745148365 499.1272589717214Q989.3552990452725 499.1272589717214 1004.7224023286914 486.6343731542754L1004.7224023286914 486.6343731542754Q1021.3416399537219 473.0885561859285 1024.8134669918277 442.5820104084749L1024.8134669918277 442.5820104084749L1026.4640077148615 442.5820104084749L1023.9881966303108 474.7390969089623Q1005.3484694994974 505.2741002850889 966.4184745148365 505.2741002850889L966.4184745148365 505.2741002850889ZM1049.002425863876 500.3509357146603L1051.6489825404647 500.3509357146603Q1056.970553492315 500.3509357146603 1060.7838717144969 496.56607509115156Q1064.5687323380057 492.7812144676429 1064.7679355287164 487.43118591711936L1064.7679355287164 487.43118591711936L1064.7679355287164 372.69014806759253Q1064.7679355287164 367.7954410958369 1060.8692445105157 364.4089868537502Q1056.970553492315 361.02253261166345 1051.6489825404647 361.02253261166345L1051.6489825404647 361.02253261166345L1049.2016290545866 361.02253261166345L1049.002425863876 358.97358550720764L1109.0195014652281 358.97358550720764Q1115.3655459693064 358.97358550720764 1122.8498944203047 357.74990876426875Q1130.334242871303 356.52623202132986 1133.407663527987 355.2740976797179L1133.407663527987 355.2740976797179L1133.407663527987 381.1135972747999L1131.358716423531 381.1135972747999L1131.358716423531 377.4141094473101Q1131.358716423531 372.49094487688154 1127.9722621814444 369.01911783877586Q1124.585807939358 365.5188332019971 1119.890304158313 365.3196300112861L1119.890304158313 365.3196300112861L1078.0860917076793 365.3196300112861L1078.0860917076793 428.637787058706L1112.7189892927177 428.637787058706Q1116.8168835016295 428.4385838679951 1119.6911009676023 425.5643664020223Q1122.5368608349017 422.6901489360495 1122.5368608349017 418.39305153642687L1122.5368608349017 418.39305153642687L1122.5368608349017 415.5188340704541L1124.585807939358 415.5188340704541L1124.585807939358 447.90358136032546L1122.5368608349017 447.90358136032546L1122.5368608349017 444.83016070364175Q1122.5368608349017 440.7322664947301 1119.7764737636212 437.8580490287573Q1117.0160866923402 434.98383156278453 1112.9181924834288 434.78462837207354L1112.9181924834288 434.78462837207354L1078.0860917076793 434.78462837207354L1078.0860917076793 496.05383831503764L1107.3974183408673 496.05383831503764Q1122.5368608349017 496.05383831503764 1130.5334460620143 489.2809298308642Q1138.5300312891268 482.5364789453637 1143.8516022409772 469.2183227664008L1143.8516022409772 469.2183227664008L1145.9005493454329 469.2183227664008L1134.033730698793 502.3998828191161L1049.002425863876 502.3998828191161L1049.002425863876 500.3509357146603ZM1215.1663445155095 502.3998828191161L1215.1663445155095 502.3998828191161L1165.1663436470526 502.3998828191161L1165.3655468377633 500.3509357146603L1167.8413579223143 500.3509357146603Q1173.1629288741647 500.3509357146603 1176.9477894976735 496.65144788717055Q1180.7326501211824 492.9804176583539 1180.931853311893 487.6588467065033L1180.931853311893 487.6588467065033L1180.931853311893 373.71462161982043Q1180.7326501211824 368.3930506679699 1176.9477894976735 364.72202043915314Q1173.1629288741647 361.02253261166345 1167.8413579223143 361.02253261166345L1167.8413579223143 361.02253261166345L1165.3655468377633 361.02253261166345L1165.1663436470526 358.97358550720764L1205.946082545458 358.97358550720764Q1227.0331631621493 358.97358550720764 1238.7292362167514 368.3076778719509Q1250.3968516726804 377.6133126380211 1250.3968516726804 393.1796191121509L1250.3968516726804 393.1796191121509Q1250.3968516726804 405.4733017388859 1243.851603977891 413.58371736069023Q1237.2778986844287 421.6656753838216 1227.8584335236665 424.3406896590834L1227.8584335236665 424.3406896590834Q1244.0508071686022 426.7880431449612 1253.4702723293644 437.6588458380463Q1262.8897374901267 448.5011909324584 1262.8897374901267 465.0065981627971Q1262.8897374901267 481.5120053931358 1250.3114788766616 491.95594410612597Q1237.7047626645235 502.3998828191161 1215.1663445155095 502.3998828191161ZM1194.250009490856 365.5188332019971L1194.250009490856 494.83016157209875L1214.3410741539924 494.83016157209875Q1214.5402773447036 494.83016157209875 1214.7394805354147 494.83016157209875L1214.7394805354147 494.83016157209875Q1230.3342446082174 494.83016157209875 1238.9284394074625 486.4067123648914Q1247.522634206708 478.0117207563571 1247.522634206708 462.4454142822273L1247.522634206708 462.4454142822273Q1247.522634206708 453.62355869359806 1244.563043944716 446.96448060411655Q1241.6034536827242 440.3054025146351 1237.0786954937175 436.4351690951074L1237.0786954937175 436.4351690951074Q1225.2118768470777 426.5888399542502 1201.4213243564514 426.5888399542502L1201.4213243564514 426.5888399542502Q1201.4213243564514 426.5888399542502 1201.2221211657406 426.5888399542502L1201.2221211657406 426.5888399542502L1201.2221211657406 424.73909604050533Q1228.2852975037613 424.73909604050533 1233.8060716463228 404.6764889760419L1233.8060716463228 404.6764889760419Q1235.0297483892618 400.1517307870353 1235.0297483892618 394.63095664447377L1235.0297483892618 394.63095664447377Q1235.0297483892618 380.6867332947049 1227.3461967475523 373.11701204768747Q1219.6626451058432 365.5188332019971 1205.1208121839413 365.5188332019971L1205.1208121839413 365.5188332019971L1194.250009490856 365.5188332019971ZM1304.0963403686274 376.70266948048516Q1326.0086913468358 356.09936804123487 1360.9546225172767 356.09936804123487Q1395.872096089045 356.09936804123487 1417.8129046659265 376.70266948048516Q1439.7252556441344 397.27751332106254 1439.7252556441344 430.6867341631619Q1439.7252556441344 464.0959550052612 1417.8129046659265 484.67079884583853Q1395.872096089045 505.2741002850889 1360.9546225172767 505.2741002850889Q1326.0086913468358 505.2741002850889 1304.0963403686274 484.67079884583853Q1282.155531791746 464.0959550052612 1282.155531791746 430.6867341631619Q1282.155531791746 397.27751332106254 1304.0963403686274 376.70266948048516ZM1315.2517190484423 480.2598710515239Q1332.5539390416252 499.1272589717214 1360.8407921225848 499.1272589717214Q1389.1276452035445 499.1272589717214 1406.4298651967274 480.2598710515239Q1423.7320851899099 461.4209407299994 1423.7320851899099 430.6867341631619Q1423.7320851899099 399.95252759632433 1406.4298651967274 381.1135972747999Q1389.1276452035445 362.24620935460234 1360.8407921225848 362.24620935460234Q1332.5539390416252 362.24620935460234 1315.2517190484423 381.1135972747999Q1297.9494990552598 399.95252759632433 1297.9494990552598 430.6867341631619Q1297.9494990552598 461.4209407299994 1315.2517190484423 480.2598710515239ZM1413.2881464769193 376.70266948048516Q1435.2289550538007 356.09936804123487 1470.1464286255691 356.09936804123487Q1505.0923597960104 356.09936804123487 1527.0047107742184 376.70266948048516Q1548.9455193510998 397.27751332106254 1548.9455193510998 430.6867341631619Q1548.9455193510998 464.0959550052612 1527.0047107742184 484.67079884583853Q1505.0923597960104 505.2741002850889 1470.1464286255691 505.2741002850889Q1435.2289550538007 505.2741002850889 1413.2881464769193 484.67079884583853Q1391.3757954987113 464.0959550052612 1391.3757954987113 430.6867341631619Q1391.3757954987113 397.27751332106254 1413.2881464769193 376.70266948048516ZM1424.4719827554077 480.2598710515239Q1441.7742027485901 499.1272589717214 1470.0610558295502 499.1272589717214Q1498.319451311837 499.1272589717214 1515.6501289036923 480.2598710515239Q1532.9523488968748 461.4209407299994 1532.9523488968748 430.6867341631619Q1532.9523488968748 399.95252759632433 1515.6501289036923 381.1135972747999Q1498.319451311837 362.24620935460234 1470.0610558295502 362.24620935460234Q1441.7742027485901 362.24620935460234 1424.4719827554077 381.1135972747999Q1407.1413051635523 399.95252759632433 1407.1413051635523 430.6867341631619Q1407.1413051635523 461.4209407299994 1424.4719827554077 480.2598710515239ZM1607.3405118280907 500.3509357146603L1607.3405118280907 500.3509357146603L1609.9870685046799 500.3509357146603L1609.9870685046799 502.3998828191161L1565.1094353973626 502.3998828191161L1565.1094353973626 500.3509357146603L1567.7844496726243 500.3509357146603Q1573.1060206244747 500.3509357146603 1576.8908812479835 496.56607509115156Q1580.7041994701653 492.7812144676429 1580.903402660876 487.43118591711936L1580.903402660876 487.43118591711936L1580.903402660876 373.71462161982043Q1580.7041994701653 368.3930506679699 1576.8908812479835 364.72202043915314Q1573.1060206244747 361.02253261166345 1567.7844496726243 361.02253261166345L1567.7844496726243 361.02253261166345L1565.1094353973626 361.02253261166345L1565.1094353973626 358.97358550720764L1609.9870685046799 358.97358550720764L1609.9870685046799 361.02253261166345L1607.3405118280907 361.02253261166345Q1601.9904832775674 361.02253261166345 1598.205622654059 364.72202043915314Q1594.4207620305501 368.3930506679699 1594.221558839839 373.71462161982043L1594.221558839839 373.71462161982043L1594.221558839839 487.43118591711936Q1594.221558839839 492.7812144676429 1598.12024985804 496.56607509115156Q1601.9904832775674 500.3509357146603 1607.3405118280907 500.3509357146603ZM1689.6968023877462 500.3509357146603L1689.6968023877462 502.3998828191161L1680.874946799117 502.3998828191161Q1659.9870693731368 502.3998828191161 1650.1407402322798 490.732267363187L1650.1407402322798 490.732267363187L1600.7668065346284 431.08514054458385L1649.1162666800515 370.4419977724257Q1650.7668074030857 368.3930506679699 1650.7668074030857 366.770967543609Q1650.7668074030857 365.1204268205751 1650.1407402322798 363.8967500776362L1650.1407402322798 363.8967500776362Q1648.518657107919 360.82332942095246 1644.2215597082964 360.82332942095246L1644.2215597082964 360.82332942095246L1642.1726126038402 360.82332942095246L1642.1726126038402 358.97358550720764L1685.3997049881236 358.97358550720764L1685.3997049881236 360.82332942095246L1684.574434626607 360.82332942095246Q1671.0570752569329 360.82332942095246 1662.4344228590144 370.4419977724257L1662.4344228590144 370.4419977724257L1614.2841659043024 426.1904335728282L1670.2318048954157 491.95594410612597Q1678.4275933132394 500.1517325239493 1689.6968023877462 500.3509357146603L1689.6968023877462 500.3509357146603Z " fill="#ddc6b6" transform="matrix(0.5178443601992102,0,0,0.5178443601992101,0,77.18495932320295)"/></g></svg>