<svg xmlns="http://www.w3.org/2000/svg" version="1.1" xmlns:xlink="http://www.w3.org/1999/xlink" xmlns:svgjs="http://svgjs.dev/svgjs" width="100%" height="100%" viewBox="0 0 1000 600"><rect width="1000" height="600" x="0" y="0" fill="#262223"/><g><circle r="166.66666666666666" cx="332.55253092447913" cy="354.7747352150815" fill="#ddc6b6" transform="matrix(0.7535302413492115,0,0,0.7535302413492115,0,32.66651196347425)"/><path d="M396.8315307366072 429.7747258713737L396.8315307366072 429.7747258713737Q375.36609392900175 429.7747258713737 361.68920905595917 416.0978409983311L361.68920905595917 416.0978409983311Q351.5547077435159 405.96333968588783 348.3407570958198 390.57391176699264L348.3407570958198 390.57391176699264Q332.29446335111805 402.7493890381917 308.9991860287659 402.7493890381917L308.9991860287659 402.7493890381917Q290.583483412405 402.7493890381917 275.47556941885534 394.72624216584086Q260.34419593152694 386.7030952934899 251.82839968982117 372.6743180137653Q243.2891439543366 358.6690002278194 243.2891439543366 341.09783938749547Q243.2891439543366 323.5266785471715 251.82839968982117 309.4275227861104Q260.34419593152694 295.3283670250494 275.38173144374014 287.5398150904865Q290.41926695595333 279.7747226497024 308.9991860287659 279.7747226497024L308.9991860287659 279.7747226497024Q332.29446335111805 279.7747226497024 350.0298406478937 291.2698746013163L350.0298406478937 291.2698746013163L353.40800775204144 315.0812607868021L351.90660015019796 315.0812607868021Q346.8393494939764 295.492583481501 328.9162962469703 288.38435686652343L328.9162962469703 288.38435686652343Q320.1424455736977 284.84197330592406 308.9991860287659 284.84197330592406L308.9991860287659 284.84197330592406Q286.1965580757687 284.84197330592406 271.0651845884403 300.72405059417423Q255.95727059489064 316.6061278824244 255.95727059489064 341.00400141238026Q255.95727059489064 365.425334436115 271.1590225635555 381.47162818081677Q286.36077453222026 397.5179219255185 308.9991860287659 397.68213838197016L308.9991860287659 397.68213838197016Q319.9782291172461 397.68213838197016 329.94851397323765 393.7878624146887Q339.89533933545044 389.9170459411861 347.00356595042797 382.9730357826602L347.00356595042797 382.9730357826602L347.00356595042797 353.0856407084642Q347.00356595042797 349.37904069141314 344.79837353522043 347.43190270777245Q342.6166406137917 345.48476472413176 338.55814819005866 345.48476472413176L338.55814819005866 345.48476472413176L335.8603064054962 345.48476472413176L335.8603064054962 343.7956811720579L368.96165212738833 343.7956811720579L368.96165212738833 345.48476472413176L366.4280267992775 345.48476472413176Q362.2053179190928 345.48476472413176 360.0001255038853 347.43190270777245Q357.8183925824565 349.37904069141314 357.98260903890815 353.0856407084642L357.98260903890815 353.0856407084642L357.98260903890815 379.1022193091576Q358.9913672713967 405.7756637356574 375.36609392900175 417.27081568727124L375.36609392900175 417.27081568727124Q386.86124588061557 425.3878005347374 405.11273204052486 425.3878005347374L405.11273204052486 425.3878005347374Q412.7136080248573 425.3878005347374 421.65167515458154 423.86293343911507L421.65167515458154 423.86293343911507L421.8158916110332 425.552016991189Q408.30322319444224 429.7747258713737 396.8315307366072 429.7747258713737Z " fill="#262223" transform="matrix(0.7535302413492115,0,0,0.7535302413492115,0,32.66651196347425)"/><path d="M718.2282972840264 429.7747217234478L718.2282972840264 429.7747217234478Q699.260635752475 429.7747217234478 687.1752295525904 417.6893155235631L687.1752295525904 417.6893155235631Q678.22000574753 408.7340917185028 675.3800389389808 395.1354185330408L675.3800389389808 395.1354185330408Q661.2009345809686 405.8941249099536 640.6163576401702 405.8941249099536L640.6163576401702 405.8941249099536Q624.3435551240304 405.8941249099536 610.9936381553757 398.8045727309475Q597.6229915019871 391.7150205519414 590.0981159435684 379.3186690810477Q582.5525107004157 366.94304729488795 582.5525107004157 351.41651342916987Q582.5525107004157 335.8899795634519 590.0981159435684 323.4314390383564Q597.6229915019871 310.97289851326093 610.9107194164401 304.09064318159415Q624.198447330893 297.2291175346613 640.6163576401702 297.2291175346613L640.6163576401702 297.2291175346613Q661.2009345809686 297.2291175346613 676.8725762398242 307.38666305429L676.8725762398242 307.38666305429L679.8576508415109 328.4272930592349L678.5309510185391 328.4272930592349Q674.0533391160088 311.11800630639846 658.2158599792818 304.83691183201586L658.2158599792818 304.83691183201586Q650.4629578887898 301.7067294371915 640.6163576401702 301.7067294371915L640.6163576401702 301.7067294371915Q620.4671040787845 301.7067294371915 607.0964574253958 315.74072600206614Q593.7465404567411 329.7747225669408 593.7465404567411 351.3335946902341Q593.7465404567411 372.9131964982614 607.1793761643315 387.0923008562736Q620.612211871922 401.2714052142858 640.6163576401702 401.4165130074234L640.6163576401702 401.4165130074234Q650.3178500956523 401.4165130074234 659.127966107575 397.97538534159Q667.9173524347639 394.5549873604906 674.1984469091465 388.4190006792455L674.1984469091465 388.4190006792455L674.1984469091465 362.00938232821113Q674.1984469091465 358.73409214024934 672.2498565441565 357.01352830733265Q670.3219958639004 355.29296447441595 666.7357604049296 355.29296447441595L666.7357604049296 355.29296447441595L664.3518466605269 355.29296447441595L664.3518466605269 353.80042717357253L693.6014318201105 353.80042717357253L693.6014318201105 355.29296447441595L691.3626258688454 355.29296447441595Q687.6312826167369 355.29296447441595 685.682692251747 357.01352830733265Q683.754831571491 358.73409214024934 683.8999393646285 362.00938232821113L683.8999393646285 362.00938232821113L683.8999393646285 384.9986026981461Q684.7913158081877 408.5682542406313 699.260635752475 418.72579976025986L699.260635752475 418.72579976025986Q709.4181812721035 425.8982706782017 725.5458759951058 425.8982706782017L725.5458759951058 425.8982706782017Q732.262293848901 425.8982706782017 740.1603037325306 424.5508411704959L740.1603037325306 424.5508411704959L740.3054115256682 426.0433784713392Q728.365113118921 429.7747217234478 718.2282972840264 429.7747217234478ZM708.8170204148195 402.30788945098266L710.7656107798094 402.30788945098266Q714.6420618250555 402.30788945098266 717.399109894669 399.5508413813692Q720.1561579642824 396.7937933117556 720.3219954421539 392.8966125817757L720.3219954421539 392.8966125817757L720.3219954421539 310.0607923849677Q720.1561579642824 306.18434133972164 717.399109894669 303.5102120090439Q714.6420618250555 300.81535299363225 710.7656107798094 300.81535299363225L710.7656107798094 300.81535299363225L708.8170204148195 300.81535299363225L708.8170204148195 299.32281569278894L741.5077332402365 299.32281569278894L741.5077332402365 300.81535299363225L739.5591428752465 300.81535299363225Q735.6826918300005 300.81535299363225 732.925643760387 303.5102120090439Q730.1685956907735 306.18434133972164 730.023487897636 310.0607923849677L730.023487897636 310.0607923849677L730.023487897636 392.8966125817757Q730.023487897636 396.7937933117556 732.8427250214512 399.5508413813692Q735.6826918300005 402.30788945098266 739.5591428752465 402.30788945098266L739.5591428752465 402.30788945098266L741.5077332402365 402.30788945098266L741.5077332402365 403.80042675182597L708.8170204148195 403.80042675182597L708.8170204148195 402.30788945098266ZM838.2324422087815 315.13956514478195L838.2324422087815 312.61054360724177Q838.2324422087815 309.0243081482709 835.6826909865074 306.412367871795Q833.1536694489672 303.8004275953191 829.7125417831339 303.65531980218145L829.7125417831339 303.65531980218145L801.3543330671096 303.65531980218145L801.3543330671096 393.0624500596472Q801.4994408602471 396.93890110489326 804.2772186145945 399.613030435571Q807.034266684208 402.30788945098266 810.9107177294541 402.30788945098266L810.9107177294541 402.30788945098266L812.859308094444 402.30788945098266L812.859308094444 403.80042675182597L780.168595269027 403.80042675182597L780.168595269027 402.30788945098266L782.096455949283 402.30788945098266Q785.993636679263 402.30788945098266 788.7506847488764 399.613030435571Q791.50773281849 396.93890110489326 791.6528406116274 393.2075578527847L791.6528406116274 393.2075578527847L791.6528406116274 303.65531980218145L763.2946318956031 303.65531980218145Q759.7083964366323 303.8004275953191 757.2622936380277 306.412367871795Q754.7954611546894 309.0243081482709 754.7954611546894 312.61054360724177L754.7954611546894 312.61054360724177L754.7954611546894 315.13956514478195L753.302923853846 315.2846729379196L753.302923853846 296.4828488842396Q755.5417298051111 297.3742253277989 761.055825944338 298.28633145609206Q766.5906517682989 299.1777078996513 771.2133714639666 299.1777078996513L771.2133714639666 299.1777078996513L821.6486944216329 299.1777078996513Q828.9662731327121 299.1777078996513 833.8170193604532 298.0583049240188Q838.6677655881942 296.9389019483863 839.724979509625 296.4828488842396L839.724979509625 296.4828488842396L839.724979509625 315.2846729379196L838.2324422087815 315.13956514478195ZM951.3543318018699 402.30788945098266L951.3543318018699 402.30788945098266L953.1578143737224 402.30788945098266L953.1578143737224 403.80042675182597L920.612209341443 403.80042675182597L920.612209341443 402.30788945098266L922.5607997064329 402.30788945098266Q926.2921429585414 402.30788945098266 929.0491910281548 399.6959491745067Q931.8062390977684 397.0840088980308 932.0964546840435 393.2075578527847L932.0964546840435 393.2075578527847L932.0964546840435 354.4015880308567L874.343553015298 354.4015880308567L874.343553015298 393.35266564592234Q874.343553015298 414.2481878577297 864.1860074956694 421.42065877567154L864.1860074956694 421.42065877567154Q859.5632878000016 424.69594896363344 852.2457090889222 426.3335940576144L852.2457090889222 426.3335940576144L851.4994404385005 424.9861645499085Q858.2158582922958 421.42065877567154 861.4289594260558 413.95797227145465Q864.642060559816 406.49528576723765 864.642060559816 393.35266564592234L864.642060559816 393.35266564592234L864.642060559816 310.0607923849677Q864.642060559816 306.18434133972164 861.8020937512667 303.5102120090439Q858.9621269427175 300.81535299363225 855.0856758974714 300.81535299363225L855.0856758974714 300.81535299363225L853.302923010353 300.81535299363225L853.302923010353 299.32281569278894L885.8277983578985 299.32281569278894L885.8277983578985 300.81535299363225L883.8999376776424 300.81535299363225Q880.0234866323964 300.81535299363225 877.245708878049 303.5102120090439Q874.4886608084355 306.18434133972164 874.343553015298 310.0607923849677L874.343553015298 310.0607923849677L874.343553015298 349.92397612832656L932.0964546840435 349.92397612832656L932.0964546840435 312.7556514003794Q932.262292161915 293.6428820756904 940.6163551096911 286.1801955714735L940.6163551096911 286.1801955714735Q945.6951278695054 281.70258366894336 954.3394064035567 279.7747229886873L954.3394064035567 279.7747229886873L955.0856750539784 281.12215249639314Q948.3692572001831 284.6876582706301 945.0939670122214 292.1503447748471Q941.7979471395255 299.613031279064 941.7979471395255 312.7556514003794L941.7979471395255 312.7556514003794L941.7979471395255 392.8966125817757Q941.7979471395255 396.7937933117556 944.5757248938729 399.5508413813692Q947.3327729634864 402.30788945098266 951.3543318018699 402.30788945098266ZM1073.5972826778902 299.32281569278894L1073.5972826778902 300.81535299363225L1071.2133689334876 300.81535299363225Q1068.0831865386633 300.81535299363225 1065.7614618484624 302.8261324128241Q1063.4397371582616 304.83691183201586 1063.294629365124 307.8219864337026L1063.294629365124 307.8219864337026L1063.294629365124 366.94304729488795Q1063.294629365124 384.39744184086203 1052.2457074019362 395.1354185330408Q1041.2175151234824 405.8941249099536 1022.851014449215 405.8941249099536Q1004.4845137749478 405.8941249099536 993.083187171283 395.21833727197657Q981.6611308828843 384.54254963399956 981.6611308828843 367.0881550880255L981.6611308828843 367.0881550880255L981.6611308828843 308.27803949784925Q981.6611308828843 303.8004275953191 977.7846798376384 301.7067294371915L977.7846798376384 301.7067294371915Q975.9811972657859 300.81535299363225 973.7423913145208 300.81535299363225L973.7423913145208 300.81535299363225L971.3584775701181 300.81535299363225L971.3584775701181 299.32281569278894L1001.6652766511324 299.32281569278894L1001.6652766511324 300.81535299363225L999.2606332219959 300.81535299363225Q995.985343034034 300.81535299363225 993.746537082769 302.8261324128241Q991.5077311315039 304.83691183201586 991.3626233383663 307.9878239115741L991.3626233383663 307.9878239115741L991.3626233383663 364.994456929898Q991.3626233383663 381.26725944603766 1000.0898206113534 391.25896748779473Q1008.8170178843404 401.2714052142858 1023.4521753064992 401.2714052142858Q1038.066603043924 401.2714052142858 1047.1876643268558 391.7772096061432Q1056.2879959250536 382.3037436827344 1056.2879959250536 366.94304729488795L1056.2879959250536 366.94304729488795L1056.2879959250536 307.9878239115741Q1056.1428881319162 304.83691183201586 1053.9040821806511 302.8261324128241Q1051.665276229386 300.81535299363225 1048.3692563566901 300.81535299363225L1048.3692563566901 300.81535299363225L1045.9853426122877 300.81535299363225L1045.9853426122877 299.32281569278894L1073.5972826778902 299.32281569278894ZM1126.4372490646929 403.80042675182597L1126.4372490646929 403.80042675182597L1090.0151929871674 403.80042675182597L1090.160300780305 402.30788945098266L1091.9637833521574 402.30788945098266Q1095.8402343974035 402.30788945098266 1098.597282467017 399.613030435571Q1101.3543305366306 396.93890110489326 1101.499438329768 393.0624500596472L1101.499438329768 393.0624500596472L1101.499438329768 310.0607923849677Q1101.3543305366306 306.18434133972164 1098.597282467017 303.5102120090439Q1095.8402343974035 300.81535299363225 1091.9637833521574 300.81535299363225L1091.9637833521574 300.81535299363225L1090.160300780305 300.81535299363225L1090.0151929871674 299.32281569278894L1119.7208312108978 299.32281569278894Q1135.0815275987443 299.32281569278894 1143.601428024392 306.12215228551986Q1152.1005987653057 312.90075919351693 1152.1005987653057 324.2398967429799L1152.1005987653057 324.2398967429799Q1152.1005987653057 333.1951205480402 1147.3327712765004 339.1030806972119Q1142.5442141029612 344.99031116164974 1135.6826884560282 346.9389015266397L1135.6826884560282 346.9389015266397Q1147.4778790696378 348.7216544137582 1154.3394047165707 356.64039398212174Q1161.2009303635034 364.5384038657513 1161.2009303635034 376.5616210114342Q1161.2009303635034 388.584838157117 1152.0384097111037 396.19263245447155Q1142.8551593739703 403.80042675182597 1126.4372490646929 403.80042675182597ZM1111.20093078525 304.09064318159415L1111.20093078525 398.28633061259904L1125.836088207409 398.28633061259904Q1125.9811960005463 398.28633061259904 1126.1263037936837 398.28633061259904L1126.1263037936837 398.28633061259904Q1137.4861710278808 398.28633061259904 1143.7465358175295 392.150343931354Q1150.006900607178 386.03508693484287 1150.006900607178 374.69594938538L1150.006900607178 374.69594938538Q1150.006900607178 368.26974711785977 1147.8510133948487 363.4190008901188Q1145.6951261825193 358.56825466237785 1142.3991063098235 355.7490175385625L1142.3991063098235 355.7490175385625Q1133.7548277757724 348.57654662062066 1116.4248113382018 348.57654662062066L1116.4248113382018 348.57654662062066Q1116.4248113382018 348.57654662062066 1116.2797035450644 348.57654662062066L1116.2797035450644 348.57654662062066L1116.2797035450644 347.2291171129149Q1135.9936337270374 347.2291171129149 1140.0151925654209 332.61468937549L1140.0151925654209 332.61468937549Q1140.9065690089801 329.31866950279414 1140.9065690089801 325.29711066441064L1140.9065690089801 325.29711066441064Q1140.9065690089801 315.13956514478195 1135.3095541308176 309.62546900555503Q1129.7125392526548 304.09064318159415 1119.1196703536136 304.09064318159415L1119.1196703536136 304.09064318159415L1111.20093078525 304.09064318159415Z " fill="#ddc6b6" transform="matrix(0.7535302413492115,0,0,0.7535302413492115,0,32.66651196347425)"/></g></svg>