<svg xmlns="http://www.w3.org/2000/svg" version="1.1" xmlns:xlink="http://www.w3.org/1999/xlink" xmlns:svgjs="http://svgjs.dev/svgjs" width="100%" height="100%" viewBox="0 0 1000 600"><rect width="1000" height="600" x="0" y="0" fill="#262223"/><g><circle r="166.66666666666666" cx="441.5888773600261" cy="463.81105941558894" fill="#ddc6b6" transform="matrix(0.4546740792202949,0,0,0.4546740792202949,0,89.11712299442236)"/><path d="M478.66930959600575 536.7277194792734L478.66930959600575 536.7277194792734L481.3892169954073 536.7277194792734L481.3892169954073 538.8110528064745L435.7584300926817 538.8110528064745L435.7584300926817 536.7277194792734L438.4783374920832 536.7277194792734Q443.88921710578626 536.7277194792734 447.8533374644885 532.8793398609712Q451.7885226380907 529.030960242669 451.7885226380907 523.591145443866L451.7885226380907 523.591145443866L451.7885226380907 398.5911458117959L429.50843011107816 399.8642939561966Q408.4725505433664 401.10850691549734 408.4725505433664 415.0552661337052L408.4725505433664 415.0552661337052Q408.4725505433664 420.6976272282083 412.11838386596844 424.6328124018105Q415.76421718857046 428.59693276051274 423.6635227208749 429.030960537013L423.6635227208749 429.030960537013L423.6635227208749 430.2751734963137Q420.77000421087325 430.88281238341403 417.8475505157717 430.88281238341403L417.8475505157717 430.88281238341403Q408.6750968390665 430.88281238341403 404.103337593264 423.59114573820995L404.103337593264 423.59114573820995Q401.3834301938624 419.4244790838076 401.3834301938624 414.4476272466048L401.3834301938624 414.4476272466048Q401.3834301938624 396.7392939653949 428.2642171517775 393.81684027029326L428.2642171517775 393.81684027029326Q428.4667634474776 393.81684027029326 448.9818096833891 392.4568865705925Q469.49685591930063 391.09693287089175 481.3892169954073 388.8110532479904L481.3892169954073 388.8110532479904L481.7943095868075 390.8943865751916Q472.8533373909025 392.34114583019243 469.09176332790037 396.941840261095Q465.33018926489825 401.51359950689755 465.33018926489825 409.6443865200021L465.33018926489825 409.6443865200021L465.33018926489825 523.591145443866Q465.5616707456984 529.030960242669 469.41005036400054 532.8793398609712Q473.2584299823027 536.7277194792734 478.66930959600575 536.7277194792734Z " fill="#262223" transform="matrix(0.4546740792202949,0,0,0.4546740792202949,0,89.11712299442236)"/><path d="M767.397766002783 533.9009344389774L767.397766002783 533.9009344389774L770.0656941782028 533.9009344389774L770.0656941782028 535.9444538924904L725.3069417033411 535.9444538924904L725.3069417033411 533.9009344389774L727.9748698787608 533.9009344389774Q733.2823440149683 533.9009344389774 737.1707074195696 530.1260998929047Q741.0306886095385 526.3512653468321 741.0306886095385 521.0154089959924L741.0306886095385 521.0154089959924L741.0306886095385 398.4042417852111L719.1763833428021 399.6530592290246Q698.542513305247 400.87349445820604 698.542513305247 414.55372191089043L698.542513305247 414.55372191089043Q698.542513305247 420.08825376415484 702.1186723488947 423.9482349541239Q705.6948313925426 427.83659835872504 713.4431759871128 428.26233157820695L713.4431759871128 428.26233157820695L713.4431759871128 429.4827668073884Q710.6049545239002 430.07879331466296 707.7383508460556 430.07879331466296L707.7383508460556 430.07879331466296Q698.7411888076718 430.07879331466296 694.2567988957961 422.9264752273674L694.2567988957961 422.9264752273674Q691.5888707203763 418.83943632034135 691.5888707203763 413.9576954036158L691.5888707203763 413.9576954036158Q691.5888707203763 396.5877800487551 717.9559481136207 393.7211763709104L717.9559481136207 393.7211763709104Q718.1546236160456 393.7211763709104 738.2776137902224 392.38721228320054Q758.4006039643992 391.05324819549065 770.0656941782028 388.8110532395528L770.0656941782028 388.8110532395528L770.4630451830525 390.8545726930658Q761.6929408617258 392.2736834246721 758.0032529595495 396.78645555118Q754.3135650573732 401.27084546305576 754.3135650573732 409.246247774683L754.3135650573732 409.246247774683L754.3135650573732 521.0154089959924Q754.5406227744303 526.3512653468321 758.3154573205029 530.1260998929047Q762.0902918665755 533.9009344389774 767.397766002783 533.9009344389774ZM944.7866074535661 394.94161160009185L941.0969195513899 394.94161160009185Q935.9881209176074 394.94161160009185 932.3268152300632 398.51777064373965Q928.6371273278869 402.0939296873874 928.4384518254619 407.20272832117L928.4384518254619 407.20272832117L928.4384518254619 512.6426556795154Q928.4384518254619 524.5064213957439 929.8575625570683 535.1213696681588L929.8575625570683 535.1213696681588L930.2832957765502 538.811057570335L928.4384518254619 538.811057570335L817.0666416090023 419.86119604709785L817.0666416090023 521.6398177178992Q817.0666416090023 526.7486163516818 820.7279472965464 530.3247753953297Q824.4176351987228 533.9009344389774 829.5264338325053 533.9009344389774L829.5264338325053 533.9009344389774L833.4147972371064 533.9009344389774L833.4147972371064 535.9444538924904L791.3239729376646 535.9444538924904L791.3239729376646 533.9009344389774L795.1839541276337 533.9009344389774Q800.2927527614162 533.9009344389774 803.9824406635926 530.3247753953297Q807.6721285657688 526.7486163516818 807.6721285657688 521.4411422154743L807.6721285657688 521.4411422154743L807.6721285657688 415.37680613522207Q807.6721285657688 402.91701391171904 806.2246356195304 393.0967676490037L806.2246356195304 393.0967676490037L805.8272846146806 389.8328129663093L807.8708040681937 389.8328129663093L919.2426142846534 508.75429227491435L919.2426142846534 407.4014038235949Q919.0439387822286 402.0939296873874 915.3542508800522 398.51777064373965Q911.6645629778759 394.94161160009185 906.5557643440934 394.94161160009185L906.5557643440934 394.94161160009185L902.6957831541243 394.94161160009185L902.6957831541243 392.8980921465788L944.7866074535661 392.8980921465788L944.7866074535661 394.94161160009185ZM966.4422372178778 527.5717005760134L966.4422372178778 527.5717005760134Q965.8178284959711 524.7050968981688 965.8178284959711 516.5310190841167Q965.8178284959711 508.35694127006457 968.8831076762406 499.16110372925596L968.8831076762406 499.16110372925596L970.7279516273287 499.16110372925596Q970.5292761249038 501.4032986851939 970.5292761249038 503.6454936411318L970.5292761249038 503.6454936411318Q970.5292761249038 516.133668079267 978.0789452170492 524.3928925372154Q985.6569965238266 532.6804992097959 998.1167887473297 532.6804992097959L998.1167887473297 532.6804992097959Q1011.0023141903146 532.6804992097959 1019.261538648263 524.9037724005937Q1027.5491453208433 517.1554278060235 1027.5491453208433 505.40519094832354Q1027.5491453208433 493.6549540906237 1019.5737430092163 486.27557828627107L1019.5737430092163 486.27557828627107L980.3495223876191 449.91796134251854Q969.3088408957224 439.7003640749535 969.3088408957224 425.1970523979374Q969.3088408957224 410.66535850628924 979.0155582999093 400.3626145948278Q988.7222757040962 390.03148846873415 1005.2691068346253 390.03148846873415L1005.2691068346253 390.03148846873415Q1013.0458336438276 390.03148846873415 1022.8376976919108 392.0750079222472L1022.8376976919108 392.0750079222472L1030.8131000035378 392.0750079222472L1030.8131000035378 417.2216500863102L1028.9682560524498 417.2216500863102Q1028.9682560524498 407.60007932601974 1022.3268178285325 401.89525418496254Q1015.6853796046153 396.16204682927327 1005.2691068346253 396.16204682927327Q994.8528340646353 396.16204682927327 987.785662621236 403.11568941414396Q980.746873392469 410.06933199901465 980.746873392469 420.4856047690046Q980.746873392469 430.9018775389946 988.9209512065211 438.47992884577206L988.9209512065211 438.47992884577206L1029.1669315548747 475.66063001385623Q1039.3845288224397 485.0551430570897 1039.3845288224397 501.4032986851939Q1039.3845288224397 517.751454313298 1028.9682560524498 528.2812559418165Q1018.5519832824599 538.811057570335 1001.1820679275993 538.811057570335L1001.1820679275993 538.811057570335Q992.1849058892155 538.811057570335 982.0808374801788 536.0579827510189Q971.9483868565101 533.2765257170706 966.4422372178778 527.5717005760134ZM1171.6172667935116 414.55372191089043L1171.6172667935116 411.09109172577115Q1171.6172667935116 406.18096859441346 1168.12625439376 402.60480955076565Q1164.663624208641 399.0286505071179 1159.952176579708 398.82997500469304L1159.952176579708 398.82997500469304L1121.1253069629606 398.82997500469304L1121.1253069629606 521.2424667130495Q1121.3523646800177 526.5499408492569 1125.1271992260904 530.211246536801Q1128.9020337721631 533.9009344389774 1134.2095079083706 533.9009344389774L1134.2095079083706 533.9009344389774L1136.8774360837901 533.9009344389774L1136.8774360837901 535.9444538924904L1092.1186836089287 535.9444538924904L1092.1186836089287 533.9009344389774L1094.7866117843482 533.9009344389774Q1100.0940859205557 533.9009344389774 1103.8689204666284 530.211246536801Q1107.6437550127011 526.5499408492569 1107.8424305151261 521.4411422154743L1107.8424305151261 521.4411422154743L1107.8424305151261 398.82997500469304L1069.0155608983787 398.82997500469304Q1064.1338199816532 399.0286505071179 1060.75633644043 402.60480955076565Q1057.3788528992072 406.18096859441346 1057.3788528992072 411.09109172577115L1057.3788528992072 411.09109172577115L1057.3788528992072 414.55372191089043L1055.3353334456942 414.7523974133153L1055.3353334456942 389.00972874197765Q1058.4006126259637 390.230163971159 1065.9502817181092 391.47898141497257Q1073.5283330248867 392.6994166441539 1079.8575668878502 392.6994166441539L1079.8575668878502 392.6994166441539L1148.9398773024436 392.6994166441539Q1158.9304168529516 392.6994166441539 1165.5718550768688 391.1667770540192Q1172.213293300786 389.63413746388443 1173.6607862470246 389.00972874197765L1173.6607862470246 389.00972874197765L1173.6607862470246 414.7523974133153L1171.6172667935116 414.55372191089043ZM1309.356154403216 533.9009344389774L1309.356154403216 533.9009344389774L1310.9739406372469 533.9009344389774L1310.9739406372469 535.9444538924904L1264.994752933204 535.9444538924904L1264.994752933204 533.9009344389774L1266.839596884292 533.9009344389774Q1271.125311293743 533.9009344389774 1273.2823596057847 531.1478596196612Q1275.411025703194 528.3947848003451 1275.411025703194 525.9255321273502Q1275.411025703194 523.4846616689874 1274.6163236934945 521.0154089959924L1274.6163236934945 521.0154089959924L1261.5321227480845 486.27557828627107L1206.357097503233 486.27557828627107L1192.6484878359165 521.2424667130495Q1191.853785826217 523.6833371714122 1191.853785826217 526.0390609858787Q1191.853785826217 528.3947848003451 1193.9824519236263 531.1478596196612Q1196.139500235668 533.9009344389774 1200.425214645119 533.9009344389774L1200.425214645119 533.9009344389774L1202.270058596207 533.9009344389774L1202.270058596207 535.9444538924904L1161.2009940235216 535.9444538924904L1161.2009940235216 533.9009344389774L1163.0174557599776 533.9009344389774Q1168.12625439376 533.9009344389774 1173.036377525118 530.6369797562829Q1177.9465006564756 527.3730250735885 1181.011779836745 521.0154089959924L1181.011779836745 521.0154089959924L1227.189643043213 411.09109172577115Q1234.7676943499905 394.54426059524206 1234.7676943499905 390.03148846873415L1234.7676943499905 390.03148846873415L1236.5841560864465 390.03148846873415L1291.3618303264484 521.0154089959924Q1294.228434004293 527.3730250735885 1299.138557135651 530.6369797562829Q1304.0202980523763 533.9009344389774 1309.356154403216 533.9009344389774ZM1234.5406366329335 414.55372191089043L1208.797967961596 480.1450199257321L1259.06287007509 480.1450199257321L1234.5406366329335 414.55372191089043ZM1387.2085691391358 538.811057570335Q1354.5122578829273 538.6123820679102 1334.162209991693 518.17718753278Q1313.8405443150914 497.74199299764973 1313.8405443150914 464.4212730195346Q1313.8405443150914 431.1005530414195 1334.162209991693 410.5802118623929Q1354.5122578829273 390.03148846873415 1387.2085691391358 390.03148846873415L1387.2085691391358 390.03148846873415Q1415.3921082688357 390.03148846873415 1436.8490625307227 403.93877363847554L1436.8490625307227 403.93877363847554L1440.9361014377487 432.74672149008273L1439.1196397012927 432.74672149008273Q1434.6068675747847 415.1781306327972 1421.0117867659965 405.6700887310352Q1407.4450881718408 396.16204682927327 1387.2085691391358 396.16204682927327L1387.2085691391358 396.16204682927327Q1361.2388427507408 396.16204682927327 1345.20289148359 414.9794551303723Q1329.1669402164393 433.7684812168393 1329.1669402164393 464.4212730195346Q1329.1669402164393 495.07406482222996 1345.20289148359 513.7779442648005Q1361.2388427507408 532.4818237073711 1387.2085691391358 532.6804992097959L1387.2085691391358 532.6804992097959Q1400.4914455869703 532.6804992097959 1412.440357947095 527.9690515808632Q1424.3892703072197 523.2859861665625 1433.3864323456032 514.8848506354534L1433.3864323456032 514.8848506354534L1433.3864323456032 478.72590919412573Q1433.3864323456032 474.24151928224995 1430.6333575262875 471.88579546778357Q1427.8802827069712 469.5300716533171 1422.9701595756133 469.5300716533171L1422.9701595756133 469.5300716533171L1419.7062048929192 469.5300716533171L1419.7062048929192 467.4865521998041L1459.7535097388477 467.4865521998041L1459.7535097388477 469.5300716533171L1456.6882305585782 469.5300716533171Q1451.5794319247957 469.5300716533171 1448.9115037493762 471.88579546778357Q1446.2719577885882 474.24151928224995 1446.4706332910132 478.72590919412573L1446.4706332910132 478.72590919412573L1446.4706332910132 512.4439801770907Q1441.1631591548057 519.3976227619613 1433.7837833504532 524.9037724005937Q1426.4327897607327 530.4383042538581 1414.0865263957585 534.6104898047805Q1401.7118808161517 538.811057570335 1387.2085691391358 538.811057570335L1387.2085691391358 538.811057570335ZM1513.906775256943 399.22732600954276L1513.906775256943 399.22732600954276L1500.8225743115331 399.22732600954276L1500.8225743115331 521.0154089959924Q1500.8225743115331 526.3512653468321 1504.5974088576058 530.1260998929047Q1508.3722434036786 533.9009344389774 1513.906775256943 533.9009344389774L1513.906775256943 533.9009344389774L1516.3476457153056 533.9009344389774L1516.5463212177306 535.9444538924904L1471.8159509575012 535.9444538924904L1471.8159509575012 533.9009344389774L1474.4554969182886 533.9009344389774Q1479.7629710544961 533.9009344389774 1483.566187815201 530.211246536801Q1487.3410223612736 526.5499408492569 1487.5396978636986 521.2424667130495L1487.5396978636986 521.2424667130495L1487.5396978636986 407.82713704307673Q1487.3410223612736 402.4912806922372 1483.566187815201 398.7164461461645Q1479.7629710544961 394.94161160009185 1474.4554969182886 394.94161160009185L1474.4554969182886 394.94161160009185L1471.8159509575012 394.94161160009185L1471.8159509575012 392.8980921465788L1526.9909762023526 392.8980921465788Q1545.581326786395 392.8980921465788 1556.1962750588095 403.2292182726724Q1566.8396055458566 413.5319621841339 1566.8396055458566 429.9936466707666Q1566.8396055458566 446.4269489427671 1556.7071549221878 458.40424351752404Q1546.603086513151 470.35315587764876 1532.099774836135 470.35315587764876L1532.099774836135 470.35315587764876Q1535.1650540164046 471.77226660925504 1539.3372395673273 475.9728343748096Q1543.5378073328816 480.1450199257321 1546.801762015576 484.6577920522399L1546.801762015576 484.6577920522399Q1564.370352872862 509.77605200167085 1569.677827009069 515.6227882158887Q1575.0136833599086 521.4411422154743 1577.2558783158465 523.5698083128838Q1579.4980732717845 525.7268566249253 1582.1660014472045 527.7703760784383Q1584.805547407992 529.8138955319514 1587.4734755834115 531.0343307611327L1587.4734755834115 531.0343307611327Q1593.405358441526 533.9009344389774 1600.1319433093395 533.9009344389774L1600.1319433093395 533.9009344389774L1600.1319433093395 535.9444538924904L1588.892586315018 535.9444538924904Q1580.122481993691 535.9444538924904 1572.544430686914 532.7656458536924Q1564.9947615947685 529.6152200295264 1561.2199270486958 526.2377364883035Q1557.416710287991 522.8602529470807 1554.6636354686748 519.7098271229147Q1551.9105606493586 516.5310190841167 1539.4507684258556 498.53669500734924Q1526.9909762023526 480.57075314521387 1524.9474567488396 478.0163538283226Q1522.9039372953266 475.4619545114314 1520.6333601247566 472.99270183843646L1520.6333601247566 472.99270183843646Q1514.1054507593676 466.0674414681979 1507.5775413939791 466.0674414681979L1507.5775413939791 466.0674414681979L1507.5775413939791 464.02392201468484Q1509.19532762801 464.2225975171097 1511.86325580343 464.2225975171097Q1514.5028017642176 464.2225975171097 1518.3911651688186 464.02392201468484L1518.3911651688186 464.02392201468484Q1543.7364828353066 463.3995132927781 1550.2643922006955 442.765643255223L1550.2643922006955 442.765643255223Q1551.513209644509 438.6786043481969 1551.513209644509 435.1024453045492Q1551.513209644509 431.5262862609014 1551.513209644509 430.5045265341449L1551.513209644509 430.5045265341449Q1551.087476425027 416.79591686682835 1544.3608915572136 408.4231635503514Q1537.6059244747676 400.0504102338744 1526.167891978021 399.4260015119676L1526.167891978021 399.4260015119676Q1521.2577688466636 399.22732600954276 1513.906775256943 399.22732600954276ZM1737.8708309190438 533.9009344389774L1737.8708309190438 533.9009344389774L1739.5169993677073 533.9009344389774L1739.5169993677073 535.9444538924904L1693.537811663664 535.9444538924904L1693.537811663664 533.9009344389774L1695.3542734001203 533.9009344389774Q1699.6683700242029 533.9009344389774 1701.7970361216126 531.1478596196612Q1703.9540844336539 528.3947848003451 1703.9540844336539 525.9255321273502Q1703.9540844336539 523.4846616689874 1703.1310002093223 521.0154089959924L1703.1310002093223 521.0154089959924L1690.0467992639128 486.27557828627107L1634.871774019061 486.27557828627107L1621.1915465663765 521.2424667130495Q1620.368462342045 523.6833371714122 1620.368462342045 526.0390609858787Q1620.368462342045 528.3947848003451 1622.5255106540862 531.1478596196612Q1624.654176751496 533.9009344389774 1628.939891160947 533.9009344389774L1628.939891160947 533.9009344389774L1630.784735112035 533.9009344389774L1630.784735112035 535.9444538924904L1589.7156705393495 535.9444538924904L1589.7156705393495 533.9009344389774L1591.560514490438 533.9009344389774Q1596.6693131242205 533.9009344389774 1601.579436255578 530.6369797562829Q1606.4611771723035 527.3730250735885 1609.526456352573 521.0154089959924L1609.526456352573 521.0154089959924L1655.7327017736734 411.09109172577115Q1663.2823708658184 394.54426059524206 1663.2823708658184 390.03148846873415L1663.2823708658184 390.03148846873415L1665.1272148169069 390.03148846873415L1719.8765068422763 521.0154089959924Q1722.7431105201208 527.3730250735885 1727.6532336514788 530.6369797562829Q1732.5633567828363 533.9009344389774 1737.8708309190438 533.9009344389774ZM1663.0836953633934 414.55372191089043L1637.341026692056 480.1450199257321L1687.6059288055499 480.1450199257321L1663.0836953633934 414.55372191089043ZM1921.163173013309 533.9009344389774L1921.163173013309 533.9009344389774L1924.4555099106356 533.9009344389774L1924.4555099106356 535.9444538924904L1880.0941084406236 535.9444538924904L1880.0941084406236 534.0996099414023L1883.159387620893 534.0996099414023Q1886.6504000206446 534.0996099414023 1889.0912704790076 531.4600639806146Q1891.53214093737 528.7921358051948 1891.1347899325206 525.3295056200755L1891.1347899325206 525.3295056200755L1881.938952391712 422.5291242225176L1839.0250438679386 517.9501298157229Q1833.2918365122491 530.4383042538581 1832.0714012830676 538.811057570335L1832.0714012830676 538.811057570335L1830.0278818295546 538.811057570335L1777.7194602625477 425.3957279003623L1768.9209737265892 525.3295056200755Q1768.5236227217392 528.5934603027699 1770.9644931801022 531.3465351220862Q1773.4337458530968 534.0996099414023 1776.8963760382162 534.0996099414023L1776.8963760382162 534.0996099414023L1779.9616552184857 534.0996099414023L1779.9616552184857 535.9444538924904L1740.3117013774067 535.9444538924904L1740.3117013774067 533.9009344389774L1743.6040382747333 533.9009344389774Q1749.3088634157903 533.9009344389774 1753.509431181345 530.4383042538581Q1757.6816167322672 526.9472918541067 1758.5047009565988 521.0154089959924L1758.5047009565988 521.0154089959924L1773.8310968579467 390.03148846873415L1775.8746163114597 390.03148846873415L1832.8944855073992 513.2670644014222L1888.6939194741576 390.03148846873415L1890.5103812106136 390.03148846873415L1906.2625103314435 521.0154089959924Q1907.085594555775 526.9472918541067 1911.371308965226 530.4383042538581Q1915.657023374677 533.9009344389774 1921.163173013309 533.9009344389774Z " fill="#ddc6b6" transform="matrix(0.4546740792202949,0,0,0.4546740792202949,0,89.11712299442236)"/></g></svg>