<svg xmlns="http://www.w3.org/2000/svg" version="1.1" xmlns:xlink="http://www.w3.org/1999/xlink" xmlns:svgjs="http://svgjs.dev/svgjs" width="100%" height="100%" viewBox="0 0 1000 600"><rect width="1000" height="600" x="0" y="0" fill="#262223"/><g><circle r="166.66666666666666" cx="364.2182413736979" cy="386.4404664952184" fill="#ddc6b6" transform="matrix(0.6327461584924081,0,0,0.6327461584924081,0,55.48128172467193)"/><path d="M323.85757825397377 430.87292528117274L323.85757825397377 430.87292528117274Q359.2466869713133 443.1691410219432 376.9181715068296 447.55240742109214Q394.6127258654994 451.9587436433945 407.32419842303136 451.9587436433945Q420.0356709805634 451.9587436433945 435.30789390812447 446.1451482087338L435.30789390812447 446.1451482087338L436.13840754164744 447.4831979516319Q415.88310281294855 461.4404409594484 395.2817507369484 461.4404409594484L395.2817507369484 461.4404409594484Q374.19593237472657 461.4404409594484 347.2734487546906 448.31371158515486L347.2734487546906 448.31371158515486Q326.51060791661655 438.0015006355781 321.5275261154788 435.85600708231044L321.5275261154788 435.85600708231044Q303.76376228734875 427.8738482712286 292.29806018010123 427.71235950915474L292.29806018010123 427.71235950915474L292.29806018010123 426.0513322421088L294.46662355652234 426.0513322421088Q298.78068048621105 426.0513322421088 301.8489669656153 423.0522552321648Q304.9172534450196 420.07624804537414 305.07874220709346 415.5776325304582L305.07874220709346 415.5776325304582L305.07874220709346 323.5751777946368Q304.9172534450196 319.2380510417947 301.8489669656153 316.1697645623904Q298.78068048621105 313.10147808298615 294.46662355652234 313.10147808298615L294.46662355652234 313.10147808298615L292.29806018010123 313.10147808298615L292.29806018010123 311.44045081594015L328.6791712930376 311.44045081594015L328.6791712930376 313.10147808298615L326.51060791661655 313.10147808298615Q322.19655098692783 313.10147808298615 319.03598521490994 316.1697645623904Q315.87541944289194 319.2380510417947 315.87541944289194 323.5751777946368L315.87541944289194 323.5751777946368L315.87541944289194 419.40722317392516Q315.87541944289194 422.4063001838692 316.2214667901932 423.9750481583014Q316.54444431434104 425.5437961327337 318.36696034346085 427.55087074708086Q320.21254619573415 429.53487553827455 323.85757825397377 430.87292528117274Z " fill="#262223" transform="matrix(0.6327461584924081,0,0,0.6327461584924081,0,55.48128172467193)"/><path d="M645.0939566040463 431.5352393408062L645.0939566040463 431.5352393408062Q679.716286301574 443.56503186282856 697.0048811831294 447.85332563240496Q714.3160460318933 452.1641893691897 726.7520979636649 452.1641893691897Q739.1881498954367 452.1641893691897 754.1294681873293 446.47655763269887L754.1294681873293 446.47655763269887L754.941987006828 447.7856157307801Q735.1255557979432 461.4404458917998 714.9705750809339 461.4404458917998L714.9705750809339 461.4404458917998Q694.3416250525504 461.4404458917998 668.0024733204677 448.59813455027876L668.0024733204677 448.59813455027876Q647.6895028330005 438.50935920817 642.8143899160082 436.41035225779837L642.8143899160082 436.41035225779837Q625.4355151656196 428.6011436037276 614.2182414630959 428.4431538332695L614.2182414630959 428.4431538332695L614.2182414630959 426.81811619427214L616.3398183806758 426.81811619427214Q620.5604022486273 426.81811619427214 623.5622078873308 423.88402045719357Q626.5640135260344 420.97249468732326 626.7220032964924 416.57135108170525L626.7220032964924 416.57135108170525L626.7220032964924 326.56232185501665Q626.5640135260344 322.3191680198568 623.5622078873308 319.31736238115326Q620.5604022486273 316.3155567424498 616.3398183806758 316.3155567424498L616.3398183806758 316.3155567424498L614.2182414630959 316.3155567424498L614.2182414630959 314.6905191034524L649.8110797505803 314.6905191034524L649.8110797505803 316.3155567424498L647.6895028330005 316.3155567424498Q643.4689189650488 316.3155567424498 640.3768334575121 319.31736238115326Q637.2847479499754 322.3191680198568 637.2847479499754 326.56232185501665L637.2847479499754 326.56232185501665L637.2847479499754 420.3179656382826Q637.2847479499754 423.2520613753613 637.6232974580998 424.7868191455254Q637.9392769990161 426.3215769156896 639.7223044084715 428.2851640628115Q641.5279017851353 430.226181242725 645.0939566040463 431.5352393408062ZM679.3777367934495 426.81811619427214L681.4993137110293 426.81811619427214Q685.7198975789809 426.81811619427214 688.7217032176844 423.8163105555687Q691.723508856388 420.81450491686513 691.9040685940544 416.57135108170525L691.9040685940544 416.57135108170525L691.9040685940544 326.3817621173503Q691.723508856388 322.1611782493987 688.7217032176844 319.2496524795284Q685.7198975789809 316.3155567424498 681.4993137110293 316.3155567424498L681.4993137110293 316.3155567424498L679.3777367934495 316.3155567424498L679.3777367934495 314.6905191034524L714.9705750809339 314.6905191034524L714.9705750809339 316.3155567424498L712.848998163354 316.3155567424498Q708.6284142954024 316.3155567424498 705.626608656699 319.2496524795284Q702.6248030179954 322.1611782493987 702.4668132475374 326.3817621173503L702.4668132475374 326.3817621173503L702.4668132475374 416.57135108170525Q702.4668132475374 420.81450491686513 705.5363287878657 423.8163105555687Q708.6284142954024 426.81811619427214 712.848998163354 426.81811619427214L712.848998163354 426.81811619427214L714.9705750809339 426.81811619427214L714.9705750809339 428.4431538332695L679.3777367934495 428.4431538332695L679.3777367934495 426.81811619427214ZM853.9112932152105 316.3155567424498L850.977197478132 316.3155567424498Q846.9146033806385 316.3155567424498 844.0030776107682 319.15937261069524Q841.0689818736896 322.0031884789407 840.9109921032315 326.0657825764341L840.9109921032315 326.0657825764341L840.9109921032315 409.9132107552577Q840.9109921032315 419.3474570483258 842.0394904636463 427.78862478422894L842.0394904636463 427.78862478422894L842.3780399717708 430.7227205213075L840.9109921032315 430.7227205213075L752.3464407778738 336.1319879513346L752.3464407778738 417.0678903602878Q752.3464407778738 421.1304844577813 755.2805365149525 423.9743003260267Q758.1920622848228 426.81811619427214 762.2546563823162 426.81811619427214L762.2546563823162 426.81811619427214L765.346741889853 426.81811619427214L765.346741889853 428.4431538332695L731.8754805199484 428.4431538332695L731.8754805199484 426.81811619427214L734.9675660274851 426.81811619427214Q739.0301601249786 426.81811619427214 741.9416858948489 423.9743003260267Q744.8757816319276 421.1304844577813 744.8757816319276 416.90990058982976L744.8757816319276 416.90990058982976L744.8757816319276 332.5659331324237Q744.8757816319276 322.6577175279813 743.7247133043044 314.8485088739105L743.7247133043044 314.8485088739105L743.4087337633882 312.2529626449563L745.0337714023856 312.2529626449563L833.5983227277433 406.821125247721L833.5983227277433 326.2237723468922Q833.4403329572851 322.0031884789407 830.5062372202066 319.15937261069524Q827.5947114503363 316.3155567424498 823.5321173528428 316.3155567424498L823.5321173528428 316.3155567424498L820.4400318453061 316.3155567424498L820.4400318453061 314.6905191034524L853.9112932152105 314.6905191034524L853.9112932152105 316.3155567424498ZM902.8204121555902 426.81811619427214L902.8204121555902 426.81811619427214L904.9419890731701 426.81811619427214L904.9419890731701 428.4431538332695L869.3491507856858 428.4431538332695L869.3491507856858 426.81811619427214L871.4707277032658 426.81811619427214Q875.6913115712173 426.81811619427214 878.6931172099207 423.8163105555687Q881.6949228486242 420.81450491686513 881.8529126190824 416.57135108170525L881.8529126190824 416.57135108170525L881.8529126190824 326.3817621173503Q881.6949228486242 322.1611782493987 878.6931172099207 319.2496524795284Q875.6913115712173 316.3155567424498 871.4707277032658 316.3155567424498L871.4707277032658 316.3155567424498L869.3491507856858 316.3155567424498L869.3491507856858 314.6905191034524L904.9419890731701 314.6905191034524L904.9419890731701 316.3155567424498L902.8204121555902 316.3155567424498Q898.5998282876387 316.3155567424498 895.5980226489353 319.2496524795284Q892.5962170102317 322.1611782493987 892.4156572725653 326.3817621173503L892.4156572725653 326.3817621173503L892.4156572725653 416.57135108170525Q892.4156572725653 420.81450491686513 895.507742780102 423.8163105555687Q898.5998282876387 426.81811619427214 902.8204121555902 426.81811619427214ZM968.1604672236102 426.81811619427214L968.1604672236102 428.4431538332695L961.1637773890382 428.4431538332695Q944.5974214581481 428.4431538332695 936.7882128040774 419.1894672778678L936.7882128040774 419.1894672778678L897.6293196976819 371.8828160092772L935.9756939845786 323.78621588839616Q937.2847520826599 322.1611782493987 937.2847520826599 320.87469011852585Q937.2847520826599 319.5656320204445 936.7882128040774 318.59512343048783L936.7882128040774 318.59512343048783Q935.4791547059962 316.1575669719917 932.0710896575433 316.1575669719917L932.0710896575433 316.1575669719917L930.446052018546 316.1575669719917L930.446052018546 314.6905191034524L964.7298322079491 314.6905191034524L964.7298322079491 316.1575669719917L964.0978731261168 316.1575669719917Q953.3545687349674 316.1575669719917 946.5384386380617 323.78621588839616L946.5384386380617 323.78621588839616L908.3500541216231 368.00078164945006L952.7226096531351 420.15997586782447Q959.2227602091247 426.6601264238141 968.1604672236102 426.81811619427214L968.1604672236102 426.81811619427214ZM976.1050956809308 426.81811619427214L978.2266725985107 426.81811619427214Q982.4472564664622 426.81811619427214 985.4490621051659 423.8163105555687Q988.4734377110776 420.81450491686513 988.6314274815356 416.57135108170525L988.6314274815356 416.57135108170525L988.6314274815356 325.5692432978516Q988.6314274815356 321.6872089380245 985.5393419739991 319.0013828402371Q982.4472564664622 316.3155567424498 978.2266725985107 316.3155567424498L978.2266725985107 316.3155567424498L976.2856554185972 316.3155567424498L976.1050956809308 314.6905191034524L1023.7277264904376 314.6905191034524Q1028.760829177888 314.6905191034524 1034.69673055367 313.72001051349565Q1040.6326319294521 312.74950192353884 1043.0701883879483 311.7564233663738L1043.0701883879483 311.7564233663738L1043.0701883879483 332.24995359150756L1041.4451507489507 332.24995359150756L1041.4451507489507 329.3158578544289Q1041.4451507489507 325.4112535273935 1038.7593246511635 322.6577175279813Q1036.073498553376 319.8816115613607 1032.3494539640071 319.72362179090265L1032.3494539640071 319.72362179090265L999.1941721350187 319.72362179090265L999.1941721350187 369.94179882936356L1026.6618222275163 369.94179882936356Q1029.911897505511 369.78380905890555 1032.1688942263406 367.50424237086753Q1034.4484609143788 365.2246756828295 1034.4484609143788 361.8166106343767L1034.4484609143788 361.8166106343767L1034.4484609143788 359.53704394633866L1036.073498553376 359.53704394633866L1036.073498553376 385.22166662938065L1034.4484609143788 385.22166662938065L1034.4484609143788 382.7841101708846Q1034.4484609143788 379.5340348928898 1032.2591740951739 377.2544682048518Q1030.069887275969 374.9749015168139 1026.8198119979743 374.81691174635574L1026.8198119979743 374.81691174635574L999.1941721350187 374.81691174635574L999.1941721350187 423.4100511458193L1022.4186683923565 423.4100511458193Q1034.4484609143788 423.4100511458193 1040.7906216999102 418.0383989502446Q1047.1327824854416 412.68931672187824 1051.353366353393 402.1265720683952L1051.353366353393 402.1265720683952L1052.9784039923907 402.1265720683952L1043.5441576993223 428.4431538332695L976.1050956809308 428.4431538332695L976.1050956809308 426.81811619427214ZM1123.3515617478608 314.6905191034524Q1149.352163971819 314.6905191034524 1165.5122604929597 330.3766463132188Q1181.6723570141005 346.0627735229853 1181.6723570141005 371.56683646836103Q1181.6723570141005 397.07089941373664 1165.5122604929597 412.7570266235031Q1149.352163971819 428.4431538332695 1123.3515617478608 428.4431538332695L1123.3515617478608 428.4431538332695L1068.2582717924076 428.4431538332695L1068.2582717924076 426.81811619427214L1070.3572787427793 426.81811619427214Q1074.6004325779393 426.81811619427214 1077.6022382166427 423.8163105555687Q1080.6040438553462 420.81450491686513 1080.7620336258042 416.57135108170525L1080.7620336258042 416.57135108170525L1080.7620336258042 325.5692432978516Q1080.7620336258042 321.6872089380245 1077.6022382166427 319.0013828402371Q1074.4198728402728 316.3155567424498 1070.3572787427793 316.3155567424498L1070.3572787427793 316.3155567424498L1068.4162615628657 316.3155567424498L1068.2582717924076 314.6905191034524L1123.3515617478608 314.6905191034524ZM1123.3515617478608 319.5656320204445L1091.3247782792873 319.5656320204445L1091.3247782792873 423.5680409162774L1123.3515617478608 423.5680409162774Q1136.9838219416722 423.5680409162774 1147.4788566935304 417.0678903602878Q1157.95132147818 410.56773980429824 1163.7292330835041 398.78621692156725Q1169.48457472162 387.00469403883613 1169.48457472162 371.56683646836103L1169.48457472162 371.56683646836103Q1169.48457472162 348.16178047335694 1156.7325432489322 333.8749912305049Q1143.9805117762444 319.5656320204445 1123.3515617478608 319.5656320204445L1123.3515617478608 319.5656320204445ZM1241.7987496570038 426.81811619427214L1241.7987496570038 426.81811619427214L1243.9203265745837 426.81811619427214L1243.9203265745837 428.4431538332695L1208.3274882870992 428.4431538332695L1208.3274882870992 426.81811619427214L1210.4490652046793 426.81811619427214Q1214.6696490726308 426.81811619427214 1217.7617345801675 423.8163105555687Q1220.8538200877042 420.81450491686513 1220.8538200877042 416.57135108170525L1220.8538200877042 416.57135108170525L1220.8538200877042 319.069092741862L1203.4523753701071 320.06217129902706Q1187.044009209675 321.03267988898386 1187.044009209675 331.91140408338305L1187.044009209675 331.91140408338305Q1187.044009209675 336.31254768900095 1189.8878250779205 339.3820632293294Q1192.731640946166 342.4741487368661 1198.9158119612393 342.8126982449905L1198.9158119612393 342.8126982449905L1198.9158119612393 343.7832068349473Q1196.6362452732014 344.25717614632157 1194.3566785851633 344.25717614632157L1194.3566785851633 344.25717614632157Q1187.201998980133 344.25717614632157 1183.6359441612221 338.5695444098307L1183.6359441612221 338.5695444098307Q1181.5143672436423 335.3194691318359 1181.5143672436423 331.4374347720088L1181.5143672436423 331.4374347720088Q1181.5143672436423 317.624614840531 1202.48186678015 315.345048152493L1202.48186678015 315.345048152493Q1202.6398565506083 315.345048152493 1218.641963301291 314.28425969370306Q1234.666640019182 313.2234712349131 1243.9203265745837 311.4404438254576L1243.9203265745837 311.4404438254576L1244.2363061154997 313.065481464455Q1237.262186248136 314.19397982486987 1234.3280905110573 317.7826046109891Q1231.416564741187 321.3486594299 1231.416564741187 327.69082021543153L1231.416564741187 327.69082021543153L1231.416564741187 416.57135108170525Q1231.5745545116451 420.81450491686513 1234.5763601503486 423.8163105555687Q1237.578165789052 426.81811619427214 1241.7987496570038 426.81811619427214ZM1382.8610447088604 316.3155567424498L1379.9269489717817 316.3155567424498Q1375.8643548742882 316.3155567424498 1372.952829104418 319.15937261069524Q1370.0187333673393 322.0031884789407 1369.860743596881 326.0657825764341L1369.860743596881 326.0657825764341L1369.860743596881 409.9132107552577Q1369.860743596881 419.3474570483258 1370.9892419572961 427.78862478422894L1370.9892419572961 427.78862478422894L1371.3277914654204 430.7227205213075L1369.860743596881 430.7227205213075L1281.2961922715235 336.1319879513346L1281.2961922715235 417.0678903602878Q1281.2961922715235 421.1304844577813 1284.2302880086022 423.9743003260267Q1287.1418137784726 426.81811619427214 1291.204407875966 426.81811619427214L1291.204407875966 426.81811619427214L1294.2964933835028 426.81811619427214L1294.2964933835028 428.4431538332695L1260.8252320135982 428.4431538332695L1260.8252320135982 426.81811619427214L1263.917317521135 426.81811619427214Q1267.9799116186284 426.81811619427214 1270.8914373884986 423.9743003260267Q1273.8255331255773 421.1304844577813 1273.8255331255773 416.90990058982976L1273.8255331255773 416.90990058982976L1273.8255331255773 332.5659331324237Q1273.8255331255773 322.6577175279813 1272.6744647979542 314.8485088739105L1272.6744647979542 314.8485088739105L1272.358485257038 312.2529626449563L1273.9835228960353 312.2529626449563L1362.548074221393 406.821125247721L1362.548074221393 326.2237723468922Q1362.3900844509349 322.0031884789407 1359.4559887138562 319.15937261069524Q1356.544462943986 316.3155567424498 1352.4818688464925 316.3155567424498L1352.4818688464925 316.3155567424498L1349.3897833389558 316.3155567424498L1349.3897833389558 314.6905191034524L1382.8610447088604 314.6905191034524L1382.8610447088604 316.3155567424498Z " fill="#ddc6b6" transform="matrix(0.6327461584924081,0,0,0.6327461584924081,0,55.48128172467193)"/></g></svg>