<svg xmlns="http://www.w3.org/2000/svg" version="1.1" xmlns:xlink="http://www.w3.org/1999/xlink" xmlns:svgjs="http://svgjs.dev/svgjs" width="100%" height="100%" viewBox="0 0 1000 600"><rect width="1000" height="600" x="0" y="0" fill="#262223"/><g><circle r="166.66666666666666" cx="350.8119913736979" cy="373.03425303256756" fill="#ddc6b6" transform="matrix(0.6788113950601666,0,0,0.6788113950601666,0,46.78007231502268)"/><path d="M341.1350508453837 298.03425053222287L360.27756280508925 298.03425053222287L360.27756280508925 448.0342496107984L341.1350508453837 448.0342496107984L341.1350508453837 298.03425053222287ZM292.88625887123646 298.03425053222287L408.73770743494305 298.03425053222287L408.73770743494305 315.0028494618041L292.88625887123646 315.0028494618041L292.88625887123646 298.03425053222287Z " fill="#262223" transform="matrix(0.6788113950601666,0,0,0.6788113950601666,0,46.78007231502268)"/><path d="M647.9691718387833 298.8900431901294L666.6785947335702 298.8900431901294L666.6785947335702 445.4963727505424L647.9691718387833 445.4963727505424L647.9691718387833 298.8900431901294ZM600.8119829020803 298.8900431901294L714.0423545855153 298.8900431901294L714.0423545855153 315.47473667099734L600.8119829020803 315.47473667099734L600.8119829020803 298.8900431901294ZM854.9237187806465 342.03385434498523L873.6331416754335 342.03385434498523L843.4442779193339 440.391120130987Q842.8245651736075 442.7224204601481 840.9064066749306 444.1093966053453Q838.9882481762538 445.4963727505424 836.4503769318504 445.4963727505424L836.4503769318504 445.4963727505424L820.0722543662246 445.4963727505424Q817.5343831218213 445.4963727505424 815.4981841001489 443.9028256901031Q813.4914952092254 442.3092786296638 813.0783533787411 439.77140738526055L813.0783533787411 439.77140738526055L796.080518067389 369.41925567994167Q795.2247242756715 365.40587789809456 794.4869710069497 361.36298998549864Q793.7197076074789 357.3201020729027 792.6573429005193 353.0706432450646L792.6573429005193 353.0706432450646L790.119471656116 353.0706432450646Q789.2636778643987 357.3201020729027 788.3193536804347 361.36298998549864Q787.3455193657218 365.40587789809456 786.5192357047533 369.41925567994167L786.5192357047533 369.41925567994167L769.7279713086432 439.77140738526055Q769.0787484321679 442.3092786296638 767.160589933491 443.9028256901031Q765.271941565563 445.4963727505424 762.4979892751687 445.4963727505424L762.4979892751687 445.4963727505424L746.3559477555339 445.4963727505424Q743.7885663803817 445.4963727505424 741.8999180124537 444.1093966053453Q739.9817595137768 442.7224204601481 739.3325366373015 440.391120130987L739.3325366373015 440.391120130987L709.1731830119509 342.03385434498523L727.853095775989 342.03385434498523L749.3364709611703 418.28803220007933Q750.3988356681298 422.12434919743305 751.2251193290983 426.0491965870335Q752.0809131208157 429.974043976634 752.730135997291 433.8103609739877L752.730135997291 433.8103609739877L755.4745781569363 433.8103609739877Q756.5369428638959 429.974043976634 757.5107771786088 426.0491965870335Q758.4551013625728 422.12434919743305 759.3108951542902 418.28803220007933L759.3108951542902 418.28803220007933L776.5153013808846 347.75881971026706Q776.9579533421177 345.2209484658638 778.758071317799 343.6274014054245Q780.5581892934805 342.03385434498523 783.3321415838748 342.03385434498523L783.3321415838748 342.03385434498523L799.6807540187517 342.03385434498523Q802.218625263155 342.03385434498523 804.0482533695853 343.6274014054245Q805.8483713452666 345.2209484658638 806.468084090993 347.96539062550926L806.468084090993 347.96539062550926L823.4659194023453 418.28803220007933Q824.3217131940627 422.12434919743305 825.2955475087756 425.9606661947869Q826.2398716927396 429.7674730613918 827.095665484457 433.8103609739877L827.095665484457 433.8103609739877L829.8401076441024 433.8103609739877Q830.9024723510619 429.7674730613918 831.5516952275372 426.0491965870335Q832.2009181040124 422.33092011267524 833.4698537262141 418.28803220007933L833.4698537262141 418.28803220007933L854.9237187806465 342.03385434498523ZM896.3559423520676 342.03385434498523L914.2095714551372 342.03385434498523L914.2095714551372 445.4963727505424L896.3559423520676 445.4963727505424L896.3559423520676 342.03385434498523ZM901.0185430103899 298.03424939841204L909.517460666066 298.03424939841204Q915.0653652468545 298.03424939841204 915.0653652468545 303.5526438484517L915.0653652468545 303.5526438484517L915.0653652468545 315.68130758623954Q915.0653652468545 321.19970203627923 909.517460666066 321.19970203627923L909.517460666066 321.19970203627923L901.0185430103899 321.19970203627923Q895.5001485603502 321.19970203627923 895.5001485603502 315.68130758623954L895.5001485603502 315.68130758623954L895.5001485603502 303.5526438484517Q895.5001485603502 298.03424939841204 901.0185430103899 298.03424939841204L901.0185430103899 298.03424939841204ZM956.0549368570425 311.43184875840143L974.1151368753542 311.43184875840143L974.1151368753542 417.0190965778777Q974.1151368753542 424.45564952659424 977.3022309962328 427.6427436474728Q980.4893251171113 430.82983776835135 988.13244898107 430.82983776835135L988.13244898107 430.82983776835135L1003.8613486702207 430.82983776835135L1005.9860780841396 444.640578958825Q1002.592413048019 445.4963727505424 998.1363833049388 446.14559562701766Q993.6803535618587 446.765308372744 989.4308947340205 447.08991981098166Q985.1814359061825 447.4145312492193 982.6140545310304 447.4145312492193L982.6140545310304 447.4145312492193Q969.659107132274 447.4145312492193 962.8717770600326 440.1845492157448Q956.0549368570425 432.95456718227035 956.0549368570425 419.35039690703877L956.0549368570425 419.35039690703877L956.0549368570425 311.43184875840143ZM957.7665244404773 342.03385434498523L1007.0484427910992 342.03385434498523L1007.0484427910992 356.25773736594317L937.3750240930044 356.25773736594317L937.3750240930044 343.0962190519448L957.7665244404773 342.03385434498523ZM1037.0012255012077 311.43184875840143L1055.0614255195194 311.43184875840143L1055.0614255195194 417.0190965778777Q1055.0614255195194 424.45564952659424 1058.2485196403982 427.6427436474728Q1061.4356137612765 430.82983776835135 1069.1082477559842 430.82983776835135L1069.1082477559842 430.82983776835135L1084.8076373143858 430.82983776835135L1086.932366728305 444.640578958825Q1083.5387016921843 445.4963727505424 1079.0826719491042 446.14559562701766Q1074.626642206024 446.765308372744 1070.3771833781857 447.08991981098166Q1066.127724550348 447.4145312492193 1063.5603431751956 447.4145312492193L1063.5603431751956 447.4145312492193Q1050.6053957764393 447.4145312492193 1043.818065704198 440.1845492157448Q1037.0012255012077 432.95456718227035 1037.0012255012077 419.35039690703877L1037.0012255012077 419.35039690703877L1037.0012255012077 311.43184875840143ZM1038.7128130846424 342.03385434498523L1087.9947314352644 342.03385434498523L1087.9947314352644 356.25773736594317L1018.3213127371696 356.25773736594317L1018.3213127371696 343.0962190519448L1038.7128130846424 342.03385434498523ZM1152.5924076445526 339.46647296983315L1152.5924076445526 339.46647296983315Q1175.964431197662 339.46647296983315 1186.4995478750106 347.96539062550926Q1197.0051544216103 356.46430828118537 1197.0051544216103 373.2555726772954L1197.0051544216103 373.2555726772954Q1197.2117253368524 387.06631386776917 1191.2801890563283 394.82747825472336Q1185.3191426450555 402.58864264167755 1172.3641952462992 402.58864264167755L1172.3641952462992 402.58864264167755L1112.015977864849 402.58864264167755L1112.015977864849 388.5418204052129L1167.672084457228 388.5418204052129Q1174.6954955754604 388.5418204052129 1176.8202249893793 383.76117922389506Q1178.9449544032982 378.9805380425772 1178.9449544032982 373.2555726772954L1178.9449544032982 373.2555726772954Q1178.7383834880561 363.28114848417556 1172.9839079920257 359.03168965633745Q1167.2589426267439 354.78223082849945 1153.4482014362702 354.78223082849945L1153.4482014362702 354.78223082849945Q1142.1753314901998 354.78223082849945 1135.7126128561958 358.05785534162465Q1129.2203840914435 361.36298998549864 1126.5644723240446 369.5372962029371Q1123.9085605566459 377.7116024203756 1123.9085605566459 392.3781374025667L1123.9085605566459 392.3781374025667Q1123.9085605566459 408.96283088343466 1127.2136952005199 417.66831945435285Q1130.489319713645 426.37380802527116 1137.7193017471195 429.5609021461497Q1144.949283780594 432.74799626702827 1156.8418664723908 432.74799626702827L1156.8418664723908 432.74799626702827Q1165.1342132128248 432.74799626702827 1175.020107013698 432.01024299830635Q1184.9060008145711 431.27248972958444 1192.755695593772 430.210125022625L1192.755695593772 430.210125022625L1194.673854092449 442.3092786296638Q1189.7751723881356 444.22743712834074 1182.6632308776568 445.4963727505424Q1175.5512893671778 446.765308372744 1167.9966958954656 447.4145312492193Q1160.4716125545024 448.03424399494565 1154.5105661432297 448.03424399494565L1154.5105661432297 448.03424399494565Q1136.65693704016 448.03424399494565 1125.8267190553227 442.63389006790146Q1114.9965010704855 437.20402601010846 1110.0092889739255 425.19340279531616Q1104.9925667466168 413.2122897112728 1104.9925667466168 393.44050210952616L1104.9925667466168 393.44050210952616Q1104.9925667466168 373.0490017620533 1110.0092889739255 361.2449494625031Q1114.9965010704855 349.4704072937019 1125.5021076170851 344.45368506639306Q1136.0372242944336 339.46647296983315 1152.5924076445526 339.46647296983315ZM1224.2134949720732 342.03385434498523L1238.2308070777892 342.03385434498523L1240.5621074069502 361.7761318159829L1242.2736949903851 364.9632259368615L1242.2736949903851 445.4963727505424L1224.2134949720732 445.4963727505424L1224.2134949720732 342.03385434498523ZM1284.3256313075326 339.46647296983315L1289.0177420966036 339.46647296983315L1286.8930126826847 356.46430828118537L1280.9319662714117 356.46430828118537Q1271.7838257392605 356.46430828118537 1262.665195337858 360.18258475554364Q1253.5170548057065 363.9008612299019 1240.355536491708 370.7177014328921L1240.355536491708 370.7177014328921L1238.8505198235155 359.4448314868217Q1250.329960684828 350.09012003942826 1261.927442069136 344.7782965046307Q1273.4954133226952 339.46647296983315 1284.3256313075326 339.46647296983315L1284.3256313075326 339.46647296983315Z " fill="#ddc6b6" transform="matrix(0.6788113950601666,0,0,0.6788113950601666,0,46.78007231502268)"/></g></svg>