<svg xmlns="http://www.w3.org/2000/svg" version="1.1" xmlns:xlink="http://www.w3.org/1999/xlink" xmlns:svgjs="http://svgjs.dev/svgjs" width="100%" height="100%" viewBox="0 0 1000 600"><rect width="1000" height="600" x="0" y="0" fill="#262223"/><g><circle r="166.66666666666666" cx="392.2055460611979" cy="414.42773160229126" fill="#ddc6b6" transform="matrix(0.5542281682677853,0,0,0.5542281682677853,0,70.31246183931799)"/><path d="M328.4765536832611 383.87427344364295L326.79604375027435 384.9173485744623Q320.3347728010322 377.18120802088544 320.3347728010322 369.5899390132557Q320.3347728010322 361.9696956964365 323.8696385221422 356.435602641256Q327.4334785524417 350.9015095860755 335.3434649611552 347.04792646388177Q343.28242567905806 343.19434334168807 353.30753665859964 343.19434334168807L353.30753665859964 343.19434334168807L438.8396973857869 343.19434334168807Q445.30096833502904 343.19434334168807 453.12403181617424 341.94844804654275Q460.94709529731944 340.67357844220794 464.07632068977745 339.4276831470626L464.07632068977745 339.4276831470626L464.07632068977745 365.70738158187254L461.99017042813875 365.50456141754654L461.99017042813875 361.9696956964365Q461.99017042813875 356.95714020666566 458.4263303978393 353.30637724879796Q454.89146467672924 349.65561429093015 450.0817293512844 349.4527941266042L450.0817293512844 349.4527941266042L410.44487438014886 349.4527941266042L410.44487438014886 474.418989660601Q410.6766688536643 481.9233357406625 417.13793980290643 485.66102162609855L417.13793980290643 485.66102162609855Q420.2671651953645 487.34153155908524 423.8020309164745 487.34153155908524L423.8020309164745 487.34153155908524L426.52561598028063 487.34153155908524L426.52561598028063 489.427681820724L380.83313038855493 489.427681820724L380.83313038855493 487.34153155908524L383.556715452361 487.34153155908524Q388.97491127078376 487.34153155908524 392.8284943929775 483.5748713644598Q396.6820775151713 479.8371854790238 396.8848976794972 474.62180982492697L396.8848976794972 474.62180982492697L396.8848976794972 349.4527941266042L353.30753665859964 349.4527941266042Q336.61833456548993 349.4527941266042 329.08501417623904 360.0863655991238L329.08501417623904 360.0863655991238Q325.14450812647704 365.50456141754654 325.14450812647704 371.444294801379Q325.14450812647704 377.41300249440087 328.4765536832611 383.87427344364295L328.4765536832611 383.87427344364295Z " fill="#262223" transform="matrix(0.5542281682677853,0,0,0.5542281682677853,0,70.31246183931799)"/><path d="M650.2142862152308 383.14799384744293L648.5612366572914 384.1740246075433Q642.2055461155587 376.56429647013243 642.2055461155587 369.09707260495776Q642.2055461155587 361.60134788533577 645.682650358121 356.1576846859146Q649.1882554551305 350.7140214864933 656.9689887192247 346.92340784501147Q664.7782228377662 343.1327942035297 674.6395184765084 343.1327942035297L674.6395184765084 343.1327942035297L758.7740408047363 343.1327942035297Q765.1297313464689 343.1327942035297 772.8249620472216 341.90725746229873Q780.5201927479741 340.65321986662053 783.5982850282751 339.4276831253896L783.5982850282751 339.4276831253896L783.5982850282751 365.2779581090287L781.5462235080744 365.07845212789806L781.5462235080744 361.60134788533577Q781.5462235080744 356.67070006596475 778.0406184110649 353.07959240561354Q774.5635141685027 349.4884847452623 769.8323723302622 349.28897876413174L769.8323723302622 349.28897876413174L730.8432034464493 349.28897876413174L730.8432034464493 472.21316399504195Q731.0712102820271 479.5948852968749 737.4269008237598 483.27149552056784L737.4269008237598 483.27149552056784Q740.5049931040608 484.92454507850726 743.982097346623 484.92454507850726L743.982097346623 484.92454507850726L746.6611776646628 484.92454507850726L746.6611776646628 486.976606598708L701.7153302013784 486.976606598708L701.7153302013784 484.92454507850726L704.3944105194182 484.92454507850726Q709.7240703010506 484.92454507850726 713.5146839425323 481.21943400036713Q717.3052975840142 477.5428237766743 717.5048035651448 472.4126699761726L717.5048035651448 472.4126699761726L717.5048035651448 349.28897876413174L674.6395184765084 349.28897876413174Q658.223026314903 349.28897876413174 650.8128041586227 359.74879234626576L650.8128041586227 359.74879234626576Q646.9366879537992 365.07845212789806 646.9366879537992 370.92112728958057Q646.9366879537992 376.7923033057103 650.2142862152308 383.14799384744293L650.2142862152308 383.14799384744293ZM956.7979775041019 345.38436170486096L956.7979775041019 343.3323001846603L997.2121891102765 343.3323001846603L997.2121891102765 345.38436170486096L995.559139552337 345.38436170486096Q990.2294797707048 345.38436170486096 985.0138234068613 348.5764574029509Q979.7696661885707 351.7400522465936 977.5180986872394 358.09574278832633L977.5180986872394 358.09574278832633L943.4595776227975 466.65549737783175Q939.3554545823962 479.5948852968749 938.9279417656877 489.42768008116985L938.9279417656877 489.42768008116985L937.0753862266176 489.42768008116985L895.2361318980816 372.06116146746984L864.0276962783629 466.65549737783175Q860.1230792190921 479.3953793157444 859.724067256831 489.42768008116985L859.724067256831 489.42768008116985L857.8715117177609 489.42768008116985L811.3011155509843 357.8962368071957Q808.8215412140751 351.7400522465936 803.6913874135735 348.5764574029509Q798.5612336130717 345.38436170486096 793.2315738314394 345.38436170486096L793.2315738314394 345.38436170486096L791.6070251279472 345.38436170486096L791.6070251279472 343.3323001846603L837.1513905346234 343.3323001846603L837.1513905346234 345.38436170486096L835.2988349955533 345.38436170486096Q830.9952059740214 345.38436170486096 828.8291410360317 348.14894458624246Q826.6915769524894 350.91352746762396 826.6915769524894 353.3931018045331Q826.6915769524894 355.84417528699504 827.2900948958812 357.8962368071957L827.2900948958812 357.8962368071957L858.4985305155999 457.8487333536372L896.6611746204431 340.05470192322866L898.5137301595132 340.2542079043593L938.9279417656877 453.74461031323585L966.4312663072662 357.6967308260651Q967.0582851051054 355.44516332473376 967.0582851051054 353.07959240561354Q967.0582851051054 350.7140214864933 965.0062235849048 348.06344202290074Q962.954162064704 345.38436170486096 958.6220321887249 345.38436170486096L958.6220321887249 345.38436170486096L956.7979775041019 345.38436170486096ZM1007.47249671128 484.92454507850726L1010.1515770293197 484.92454507850726Q1015.4812368109519 484.92454507850726 1019.2718504524338 481.13393143702547Q1023.0624640939157 477.34331779554367 1023.2619700750463 471.9851571594641L1023.2619700750463 471.9851571594641L1023.2619700750463 358.09574278832633Q1023.0624640939157 352.766083006694 1019.2718504524338 349.0894727830011Q1015.4812368109519 345.38436170486096 1010.1515770293197 345.38436170486096L1010.1515770293197 345.38436170486096L1007.47249671128 345.38436170486096L1007.47249671128 343.3323001846603L1052.4183441745645 343.3323001846603L1052.4183441745645 345.38436170486096L1049.7392638565248 345.38436170486096Q1044.4096040748923 345.38436170486096 1040.6189904334105 349.0894727830011Q1036.8283767919288 352.766083006694 1036.6003699563507 358.09574278832633L1036.6003699563507 358.09574278832633L1036.6003699563507 471.9851571594641Q1036.6003699563507 477.34331779554367 1040.5049870156217 481.13393143702547Q1044.4096040748923 484.92454507850726 1049.7392638565248 484.92454507850726L1049.7392638565248 484.92454507850726L1052.4183441745645 484.92454507850726L1052.4183441745645 486.976606598708L1007.47249671128 486.976606598708L1007.47249671128 484.92454507850726ZM1185.3748301709002 365.07845212789806L1185.3748301709002 361.60134788533577Q1185.3748301709002 356.67070006596475 1181.8977259283379 353.07959240561354Q1178.4206216857756 349.4884847452623 1173.689479847535 349.28897876413174L1173.689479847535 349.28897876413174L1134.7003109637221 349.28897876413174L1134.7003109637221 472.21316399504195Q1134.8998169448528 477.5428237766743 1138.6904305863345 481.21943400036713Q1142.5095450822637 484.92454507850726 1147.8392048638962 484.92454507850726L1147.8392048638962 484.92454507850726L1150.4897843274885 484.92454507850726L1150.4897843274885 486.976606598708L1105.5724377186516 486.976606598708L1105.5724377186516 484.92454507850726L1108.223017182244 484.92454507850726Q1113.5526769638764 484.92454507850726 1117.3717914598055 481.21943400036713Q1121.1624051012873 477.5428237766743 1121.361911082418 472.4126699761726L1121.361911082418 472.4126699761726L1121.361911082418 349.28897876413174L1082.372742198605 349.28897876413174Q1077.4420943792338 349.4884847452623 1074.050492700013 353.07959240561354Q1070.6873918752399 356.67070006596475 1070.6873918752399 361.60134788533577L1070.6873918752399 361.60134788533577L1070.6873918752399 365.07845212789806L1068.635330355039 365.2779581090287L1068.635330355039 339.4276831253896Q1071.71342263534 340.65321986662053 1079.294649918304 341.90725746229873Q1086.8758772012675 343.1327942035297 1093.2600685974476 343.1327942035297L1093.2600685974476 343.1327942035297L1162.6026474675618 343.1327942035297Q1172.6634490874349 343.1327942035297 1179.332649028087 341.59374806337917Q1186.001848968739 340.05470192322866 1187.426891691101 339.4276831253896L1187.426891691101 339.4276831253896L1187.426891691101 365.2779581090287L1185.3748301709002 365.07845212789806ZM1315.2817247413823 365.07845212789806L1315.2817247413823 361.60134788533577Q1315.2817247413823 356.67070006596475 1311.80462049882 353.07959240561354Q1308.2990154018103 349.4884847452623 1303.5963744180171 349.28897876413174L1303.5963744180171 349.28897876413174L1264.6072055342042 349.28897876413174L1264.6072055342042 472.21316399504195Q1264.8067115153349 477.5428237766743 1268.5973251568166 481.21943400036713Q1272.3879387982984 484.92454507850726 1277.7175985799308 484.92454507850726L1277.7175985799308 484.92454507850726L1280.3966788979706 484.92454507850726L1280.3966788979706 486.976606598708L1235.4508314346863 486.976606598708L1235.4508314346863 484.92454507850726L1238.129911752726 484.92454507850726Q1243.459571534358 484.92454507850726 1247.2501851758402 481.21943400036713Q1251.040798817322 477.5428237766743 1251.2688056529 472.4126699761726L1251.2688056529 472.4126699761726L1251.2688056529 349.28897876413174L1212.2796367690867 349.28897876413174Q1207.348988949716 349.4884847452623 1203.957387270495 353.07959240561354Q1200.5657855912746 356.67070006596475 1200.5657855912746 361.60134788533577L1200.5657855912746 361.60134788533577L1200.5657855912746 365.07845212789806L1198.5137240710737 365.2779581090287L1198.5137240710737 339.4276831253896Q1201.5918163513747 340.65321986662053 1209.2015444887857 341.90725746229873Q1216.7827717717496 343.1327942035297 1223.1384623134823 343.1327942035297L1223.1384623134823 343.1327942035297L1292.509542038044 343.1327942035297Q1302.570343657917 343.1327942035297 1309.239543598569 341.59374806337917Q1315.9087435392212 340.05470192322866 1317.333786261583 339.4276831253896L1317.333786261583 339.4276831253896L1317.333786261583 365.2779581090287L1315.2817247413823 365.07845212789806ZM1333.5507724420577 484.92454507850726L1336.2013519056504 484.92454507850726Q1341.5595125417299 484.92454507850726 1345.3501261832116 481.13393143702547Q1349.1407398246934 477.34331779554367 1349.340245805824 471.9851571594641L1349.340245805824 471.9851571594641L1349.340245805824 357.069712028226Q1349.340245805824 352.1675650633021 1345.4356287465534 348.77596338408154Q1341.5595125417299 345.38436170486096 1336.2013519056504 345.38436170486096L1336.2013519056504 345.38436170486096L1333.7502784231883 345.38436170486096L1333.5507724420577 343.3323001846603L1393.6590744712694 343.3323001846603Q1400.043265867449 343.3323001846603 1407.5104897326241 342.1067634434293Q1415.0062144522458 340.8812267021984 1418.0843067325468 339.6271891065202L1418.0843067325468 339.6271891065202L1418.0843067325468 365.50596494460655L1416.032245212346 365.50596494460655L1416.032245212346 361.8008538664664Q1416.032245212346 356.87020604709534 1412.6406435331255 353.3931018045331Q1409.2775427083525 349.88749670752355 1404.546400870112 349.68799072639297L1404.546400870112 349.68799072639297L1362.6786456871287 349.68799072639297L1362.6786456871287 413.10239187148346L1397.3641855494093 413.10239187148346Q1401.468308589811 412.9028858903528 1404.3468948889813 410.02429959118246Q1407.2254811881517 407.14571329201203 1407.2254811881517 402.84208427048003L1407.2254811881517 402.84208427048003L1407.2254811881517 399.96349797130966L1409.2775427083525 399.96349797130966L1409.2775427083525 432.3974703322593L1407.2254811881517 432.3974703322593L1407.2254811881517 429.31937805195827Q1407.2254811881517 425.2152550115569 1404.4323974523227 422.3366687123865Q1401.6678145709416 419.4580824132161 1397.56369153054 419.2585764320855L1397.56369153054 419.2585764320855L1362.6786456871287 419.2585764320855L1362.6786456871287 480.6209160569753L1392.0345257677773 480.6209160569753Q1407.2254811881517 480.6209160569753 1415.2057204333764 473.8377126985342Q1423.2144605330486 467.08301019454024 1428.544120314681 453.74461031323585L1428.544120314681 453.74461031323585L1430.5961818348815 453.74461031323585L1418.7113255303861 486.976606598708L1333.5507724420577 486.976606598708L1333.5507724420577 484.92454507850726ZM1492.158027440902 349.68799072639297L1492.158027440902 349.68799072639297L1479.0476343951755 349.68799072639297L1479.0476343951755 471.9851571594641Q1479.0476343951755 477.34331779554367 1482.8382480366572 481.13393143702547Q1486.628861678139 484.92454507850726 1492.158027440902 484.92454507850726L1492.158027440902 484.92454507850726L1494.6376017778111 484.92454507850726L1494.8371077589418 486.976606598708L1449.8912602956575 486.976606598708L1449.8912602956575 484.92454507850726L1452.5703406136972 484.92454507850726Q1457.9000003953297 484.92454507850726 1461.6906140368114 481.21943400036713Q1465.4812276782932 477.5428237766743 1465.7092345138708 472.21316399504195L1465.7092345138708 472.21316399504195L1465.7092345138708 358.3237496239042Q1465.4812276782932 352.9655889878246 1461.6906140368114 349.1749753463428Q1457.9000003953297 345.38436170486096 1452.5703406136972 345.38436170486096L1452.5703406136972 345.38436170486096L1449.8912602956575 345.38436170486096L1449.8912602956575 343.3323001846603L1505.296921341076 343.3323001846603Q1523.9649810040123 343.3323001846603 1534.6528014217242 353.7066112034526Q1545.3121209849892 364.05242136779776 1545.3121209849892 380.58291694719213Q1545.3121209849892 397.08491167213924 1535.1658168017748 409.112272248871Q1524.991011764113 421.11113197115554 1510.4270751415775 421.11113197115554L1510.4270751415775 421.11113197115554Q1513.5051674218785 422.5361746935171 1517.723293880069 426.7543011517074Q1521.912919483812 430.9439267554505 1525.2190185996906 435.47556261256034L1525.2190185996906 435.47556261256034Q1542.861047502527 460.6988187983604 1548.1907072841595 466.5699948144901Q1553.520367065792 472.4126699761726 1555.771934567123 474.5502340597149Q1558.052002922902 476.71629899770454 1560.7025823864942 478.76836051790525Q1563.381662704534 480.82042203810596 1566.0322421681267 482.0459587793369L1566.0322421681267 482.0459587793369Q1571.988920747598 484.92454507850726 1578.772124106039 484.92454507850726L1578.772124106039 484.92454507850726L1578.772124106039 486.976606598708L1567.4857857449351 486.976606598708Q1558.6505208662934 486.976606598708 1551.06929358333 483.78451090061805Q1543.459565445919 480.6209160569753 1539.6689518044373 477.22931437775475Q1535.8783381629555 473.8377126985342 1533.113755281574 470.67411785489145Q1530.3491724001924 467.48202215680146 1517.8087964434103 449.4124804372566Q1505.296921341076 431.371439572159 1503.2448598208753 428.8063626719081Q1501.1927983006744 426.24128577165726 1498.941230799343 423.7617114347481L1498.941230799343 423.7617114347481Q1492.3860342764797 416.8075029496236 1485.8023368991694 416.8075029496236L1485.8023368991694 416.8075029496236L1485.8023368991694 414.7554414294229Q1487.4553864571085 414.95494741055353 1490.1059659207012 414.95494741055353Q1492.785046238741 414.95494741055353 1496.689663298012 414.7554414294229L1496.689663298012 414.7554414294229Q1522.1409263193896 414.12842263158376 1528.6961228422529 393.40830144844637L1528.6961228422529 393.40830144844637Q1529.9216595834841 389.304178408045 1529.9216595834841 385.7130707476938Q1529.9216595834841 382.12196308734264 1529.9216595834841 381.0959323272423L1529.9216595834841 381.0959323272423Q1529.5226476212229 367.3300196292294 1522.739444262782 358.92226756729605Q1515.9847417587875 350.5145155053627 1504.470396562106 349.88749670752355L1504.470396562106 349.88749670752355Q1499.5682495971823 349.68799072639297 1492.158027440902 349.68799072639297Z " fill="#ddc6b6" transform="matrix(0.5542281682677853,0,0,0.5542281682677853,0,70.31246183931799)"/></g></svg>